<?xml version="1.0" encoding="UTF-8"?>
<svg xmlns="http://www.w3.org/2000/svg" xmlns:xlink="http://www.w3.org/1999/xlink" width="512" zoomAndPan="magnify" viewBox="0 0 384 383.999986" height="512" preserveAspectRatio="xMidYMid meet" version="1.0">
  <defs>
    <g></g>
    <clipPath id="459a0ffbd7">
      <path d="M 0 22 L 384 22 L 384 384 L 0 384 Z M 0 22 " clip-rule="nonzero"></path>
    </clipPath>
    <clipPath id="d32834e035">
      <path d="M 117.148438 453.007812 L -69.007812 117.148438 L 266.851562 -69.007812 L 453.007812 266.851562 Z M 117.148438 453.007812 " clip-rule="nonzero"></path>
    </clipPath>
    <clipPath id="1d9e168094">
      <path d="M 117.148438 453.007812 L -69.007812 117.148438 L 266.851562 -69.007812 L 453.007812 266.851562 Z M 117.148438 453.007812 " clip-rule="nonzero"></path>
    </clipPath>
    <clipPath id="eebc8a26f2">
      <path d="M 0 0 L 374 0 L 374 384 L 0 384 Z M 0 0 " clip-rule="nonzero"></path>
    </clipPath>
    <clipPath id="e4ad6f04dc">
      <path d="M -52.535156 310.03125 L 73.96875 -52.535156 L 436.535156 73.96875 L 310.03125 436.535156 Z M -52.535156 310.03125 " clip-rule="nonzero"></path>
    </clipPath>
    <clipPath id="b97a21c25d">
      <path d="M -52.535156 310.03125 L 73.96875 -52.535156 L 436.535156 73.96875 L 310.03125 436.535156 Z M -52.535156 310.03125 " clip-rule="nonzero"></path>
    </clipPath>
  </defs>
  <g clip-path="url(#459a0ffbd7)">
    <g clip-path="url(#d32834e035)">
      <g clip-path="url(#1d9e168094)">
        <path fill="#1cba99" d="M 24.070312 285.078125 C -1.632812 238.707031 -6.105469 186.300781 7.441406 139.0625 C 20.988281 91.824219 52.539062 49.757812 98.914062 24.054688 C 106.089844 20.792969 114.558594 23.582031 118.367188 30.457031 C 122.1875 37.347656 120.066406 46.007812 113.496094 50.363281 C 74.386719 72.042969 47.757812 107.519531 36.332031 147.359375 C 24.914062 187.175781 28.679688 231.382812 50.363281 270.503906 C 72.039062 309.613281 107.535156 336.234375 147.359375 347.667969 C 187.191406 359.078125 231.394531 355.3125 270.503906 333.636719 C 309.628906 311.949219 336.246094 276.457031 347.664062 236.640625 C 359.089844 196.800781 355.3125 152.605469 333.636719 113.496094 C 331.878906 106.628906 334.976562 99.460938 341.160156 96.03125 C 347.34375 92.601562 355.066406 93.777344 359.945312 98.914062 C 385.648438 145.285156 390.113281 197.679688 376.566406 244.917969 C 363.019531 292.15625 331.453125 334.226562 285.078125 359.929688 C 238.707031 385.632812 186.3125 390.097656 139.074219 376.550781 C 91.835938 363.003906 49.773438 331.453125 24.070312 285.078125 Z M 24.070312 285.078125 " fill-opacity="1" fill-rule="nonzero"></path>
      </g>
    </g>
  </g>
  <g clip-path="url(#eebc8a26f2)">
    <g clip-path="url(#e4ad6f04dc)">
      <g clip-path="url(#b97a21c25d)">
        <path fill="#1cba99" d="M 10.71875 128.75 C 28.183594 78.6875 64.292969 40.445312 108.550781 19.082031 C 152.804688 -2.277344 205.195312 -6.765625 255.257812 10.703125 C 262.472656 13.882812 266.03125 22.054688 263.441406 29.476562 C 260.847656 36.914062 252.976562 41.101562 245.347656 39.101562 C 203.128906 24.371094 158.929688 28.144531 121.605469 46.160156 C 84.300781 64.164062 53.835938 96.417969 39.101562 138.652344 C 24.371094 180.871094 28.160156 225.074219 46.160156 262.394531 C 64.179688 299.703125 96.433594 330.167969 138.652344 344.898438 C 180.886719 359.632812 225.089844 355.847656 262.394531 337.839844 C 299.71875 319.824219 330.167969 287.566406 344.898438 245.347656 C 348.851562 239.464844 356.257812 236.996094 362.9375 239.328125 C 369.613281 241.65625 373.878906 248.195312 373.296875 255.257812 C 355.832031 305.316406 319.726562 343.542969 275.472656 364.90625 C 231.214844 386.269531 178.808594 390.75 128.75 373.28125 C 78.6875 355.816406 40.460938 319.714844 19.097656 275.457031 C -2.261719 231.199219 -6.75 178.808594 10.71875 128.75 Z M 10.71875 128.75 " fill-opacity="1" fill-rule="nonzero"></path>
      </g>
    </g>
  </g>
  <g fill="#191f33" fill-opacity="1">
    <g transform="translate(42.105491, 270.715654)">
      <g>
        <path d="M 38.21875 0 C 32.21875 0 27.632812 -1.582031 24.46875 -4.75 C 21.300781 -7.914062 19.71875 -12.421875 19.71875 -18.265625 C 19.71875 -24.109375 21.300781 -28.570312 24.46875 -31.65625 C 27.632812 -34.738281 32.21875 -36.28125 38.21875 -36.28125 L 60.140625 -36.28125 L 60.140625 -135.859375 L 80.59375 -135.859375 L 45.28125 -114.1875 C 41.0625 -111.59375 37.082031 -110.578125 33.34375 -111.140625 C 29.613281 -111.710938 26.453125 -113.296875 23.859375 -115.890625 C 21.265625 -118.484375 19.5625 -121.644531 18.75 -125.375 C 17.9375 -129.113281 18.257812 -132.847656 19.71875 -136.578125 C 21.175781 -140.316406 24.097656 -143.484375 28.484375 -146.078125 L 62.078125 -167.015625 C 65.648438 -169.285156 69.34375 -170.988281 73.15625 -172.125 C 76.976562 -173.269531 81 -173.84375 85.21875 -173.84375 C 91.382812 -173.84375 96.171875 -172.257812 99.578125 -169.09375 C 102.984375 -165.925781 104.6875 -161.335938 104.6875 -155.328125 L 104.6875 -36.28125 L 124.171875 -36.28125 C 130.171875 -36.28125 134.753906 -34.738281 137.921875 -31.65625 C 141.085938 -28.570312 142.671875 -24.109375 142.671875 -18.265625 C 142.671875 -12.421875 141.085938 -7.914062 137.921875 -4.75 C 134.753906 -1.582031 130.171875 0 124.171875 0 Z M 38.21875 0 "></path>
      </g>
    </g>
  </g>
  <g fill="#191f33" fill-opacity="1">
    <g transform="translate(188.1635, 270.715654)">
      <g>
        <path d="M 73.046875 2.671875 C 59.242188 2.671875 47.3125 0.6875 37.25 -3.28125 C 27.1875 -7.257812 19.476562 -12.984375 14.125 -20.453125 C 8.769531 -27.921875 6.09375 -36.765625 6.09375 -46.984375 C 6.09375 -55.265625 7.753906 -62.566406 11.078125 -68.890625 C 14.398438 -75.222656 18.984375 -80.378906 24.828125 -84.359375 C 30.671875 -88.335938 37.328125 -90.734375 44.796875 -91.546875 L 44.796875 -84.484375 C 34.734375 -86.597656 26.535156 -91.546875 20.203125 -99.328125 C 13.878906 -107.117188 10.71875 -116.453125 10.71875 -127.328125 C 10.71875 -137.234375 13.234375 -145.675781 18.265625 -152.65625 C 23.296875 -159.632812 30.515625 -164.988281 39.921875 -168.71875 C 49.335938 -172.457031 60.378906 -174.328125 73.046875 -174.328125 C 85.867188 -174.328125 96.945312 -172.457031 106.28125 -168.71875 C 115.613281 -164.988281 122.796875 -159.632812 127.828125 -152.65625 C 132.859375 -145.675781 135.375 -137.234375 135.375 -127.328125 C 135.375 -120.023438 133.953125 -113.332031 131.109375 -107.25 C 128.265625 -101.164062 124.367188 -96.175781 119.421875 -92.28125 C 114.472656 -88.382812 108.75 -85.867188 102.25 -84.734375 L 102.25 -91.546875 C 113.289062 -89.921875 122.34375 -85.085938 129.40625 -77.046875 C 136.46875 -69.015625 140 -58.992188 140 -46.984375 C 140 -36.765625 137.316406 -27.921875 131.953125 -20.453125 C 126.597656 -12.984375 118.929688 -7.257812 108.953125 -3.28125 C 98.972656 0.6875 87.003906 2.671875 73.046875 2.671875 Z M 73.046875 -30.921875 C 81.640625 -30.921875 88.207031 -32.582031 92.75 -35.90625 C 97.300781 -39.238281 99.578125 -44.066406 99.578125 -50.390625 C 99.578125 -56.890625 97.300781 -61.757812 92.75 -65 C 88.207031 -68.25 81.640625 -69.875 73.046875 -69.875 C 64.441406 -69.875 57.863281 -68.25 53.3125 -65 C 48.769531 -61.757812 46.5 -56.890625 46.5 -50.390625 C 46.5 -44.066406 48.769531 -39.238281 53.3125 -35.90625 C 57.863281 -32.582031 64.441406 -30.921875 73.046875 -30.921875 Z M 73.046875 -103.71875 C 77.742188 -103.71875 81.71875 -104.445312 84.96875 -105.90625 C 88.21875 -107.363281 90.691406 -109.515625 92.390625 -112.359375 C 94.097656 -115.203125 94.953125 -118.488281 94.953125 -122.21875 C 94.953125 -127.90625 93.003906 -132.410156 89.109375 -135.734375 C 85.210938 -139.054688 79.859375 -140.71875 73.046875 -140.71875 C 66.222656 -140.71875 60.90625 -139.054688 57.09375 -135.734375 C 53.28125 -132.410156 51.375 -127.90625 51.375 -122.21875 C 51.375 -116.539062 53.28125 -112.035156 57.09375 -108.703125 C 60.90625 -105.378906 66.222656 -103.71875 73.046875 -103.71875 Z M 73.046875 -103.71875 "></path>
      </g>
    </g>
  </g>
  <g fill="#191f33" fill-opacity="1">
    <g transform="translate(264.997018, 98.091671)">
      <g>
        <path d="M 54 -5.578125 C 50.394531 -5.578125 47.632812 -6.566406 45.71875 -8.546875 C 43.800781 -10.523438 42.84375 -13.316406 42.84375 -16.921875 L 42.84375 -41.046875 L 19.265625 -41.046875 C 15.785156 -41.046875 13.113281 -41.941406 11.25 -43.734375 C 9.382812 -45.535156 8.453125 -48.175781 8.453125 -51.65625 C 8.453125 -55.132812 9.382812 -57.773438 11.25 -59.578125 C 13.113281 -61.378906 15.785156 -62.28125 19.265625 -62.28125 L 42.84375 -62.28125 L 42.84375 -85.5 C 42.84375 -89.101562 43.800781 -91.863281 45.71875 -93.78125 C 47.632812 -95.695312 50.457031 -96.65625 54.1875 -96.65625 C 57.78125 -96.65625 60.503906 -95.695312 62.359375 -93.78125 C 64.222656 -91.863281 65.15625 -89.101562 65.15625 -85.5 L 65.15625 -62.28125 L 88.734375 -62.28125 C 92.210938 -62.28125 94.882812 -61.378906 96.75 -59.578125 C 98.613281 -57.773438 99.546875 -55.132812 99.546875 -51.65625 C 99.546875 -48.175781 98.613281 -45.535156 96.75 -43.734375 C 94.882812 -41.941406 92.210938 -41.046875 88.734375 -41.046875 L 65.15625 -41.046875 L 65.15625 -16.921875 C 65.15625 -13.316406 64.222656 -10.523438 62.359375 -8.546875 C 60.503906 -6.566406 57.71875 -5.578125 54 -5.578125 Z M 54 -5.578125 "></path>
      </g>
    </g>
  </g>
</svg>
