<?xml version="1.0" encoding="UTF-8"?>
<svg xmlns="http://www.w3.org/2000/svg" xmlns:xlink="http://www.w3.org/1999/xlink" width="512" zoomAndPan="magnify" viewBox="0 0 384 383.999986" height="512" preserveAspectRatio="xMidYMid meet" version="1.0">
  <defs>
    <g></g>
    <clipPath id="8543473e89">
      <path d="M 192 0 C 85.960938 0 0 85.960938 0 192 C 0 298.039062 85.960938 384 192 384 C 298.039062 384 384 298.039062 384 192 C 384 85.960938 298.039062 0 192 0 Z M 192 0 " clip-rule="nonzero"></path>
    </clipPath>
  </defs>
  <g clip-path="url(#8543473e89)">
    <rect x="-38.4" width="460.8" fill="#ffcc00" y="-38.399999" height="460.799983" fill-opacity="1"></rect>
  </g>
  <g fill="#e34234" fill-opacity="1">
    <g transform="translate(12.148716, 228.477261)">
      <g>
        <path d="M 9.921875 0 C 9.210938 0 8.59375 -0.265625 8.0625 -0.796875 C 7.53125 -1.328125 7.265625 -1.953125 7.265625 -2.671875 L 7.265625 -71.953125 C 7.265625 -72.742188 7.507812 -73.40625 8 -73.9375 C 8.5 -74.46875 9.140625 -74.734375 9.921875 -74.734375 L 42.921875 -74.734375 C 51.960938 -74.734375 58.6875 -72.878906 63.09375 -69.171875 C 67.507812 -65.472656 69.71875 -60.207031 69.71875 -53.375 C 69.71875 -49.96875 68.804688 -47.015625 66.984375 -44.515625 C 65.171875 -42.023438 63.164062 -40.210938 60.96875 -39.078125 C 63.882812 -37.796875 66.335938 -35.675781 68.328125 -32.71875 C 70.316406 -29.769531 71.3125 -26.441406 71.3125 -22.734375 C 71.3125 -15.546875 68.945312 -9.957031 64.21875 -5.96875 C 59.488281 -1.988281 52.707031 0 43.875 0 Z M 40.671875 -45.15625 C 43.304688 -45.15625 45.335938 -45.867188 46.765625 -47.296875 C 48.191406 -48.722656 48.90625 -50.570312 48.90625 -52.84375 C 48.90625 -55.050781 48.207031 -56.847656 46.8125 -58.234375 C 45.425781 -59.628906 43.378906 -60.328125 40.671875 -60.328125 L 27.328125 -60.328125 L 27.328125 -45.15625 Z M 41.640625 -14.40625 C 44.410156 -14.40625 46.5625 -15.207031 48.09375 -16.8125 C 49.625 -18.414062 50.390625 -20.390625 50.390625 -22.734375 C 50.390625 -25.160156 49.609375 -27.171875 48.046875 -28.765625 C 46.484375 -30.367188 44.347656 -31.171875 41.640625 -31.171875 L 27.328125 -31.171875 L 27.328125 -14.40625 Z M 41.640625 -14.40625 "></path>
      </g>
    </g>
  </g>
  <g fill="#e34234" fill-opacity="1">
    <g transform="translate(87.629861, 228.477261)">
      <g>
        <path d="M 9.921875 0 C 9.210938 0 8.59375 -0.265625 8.0625 -0.796875 C 7.53125 -1.328125 7.265625 -1.953125 7.265625 -2.671875 L 7.265625 -71.953125 C 7.265625 -72.742188 7.507812 -73.40625 8 -73.9375 C 8.5 -74.46875 9.140625 -74.734375 9.921875 -74.734375 L 60.328125 -74.734375 C 61.109375 -74.734375 61.765625 -74.46875 62.296875 -73.9375 C 62.828125 -73.40625 63.09375 -72.742188 63.09375 -71.953125 L 63.09375 -61.390625 C 63.09375 -60.609375 62.828125 -59.96875 62.296875 -59.46875 C 61.765625 -58.96875 61.109375 -58.71875 60.328125 -58.71875 L 26.578125 -58.71875 L 26.578125 -45.15625 L 57.96875 -45.15625 C 58.75 -45.15625 59.40625 -44.890625 59.9375 -44.359375 C 60.476562 -43.828125 60.75 -43.171875 60.75 -42.390625 L 60.75 -32.671875 C 60.75 -31.890625 60.476562 -31.226562 59.9375 -30.6875 C 59.40625 -30.15625 58.75 -29.890625 57.96875 -29.890625 L 26.578125 -29.890625 L 26.578125 -16.015625 L 61.171875 -16.015625 C 61.953125 -16.015625 62.609375 -15.742188 63.140625 -15.203125 C 63.679688 -14.671875 63.953125 -14.015625 63.953125 -13.234375 L 63.953125 -2.671875 C 63.953125 -1.890625 63.679688 -1.25 63.140625 -0.75 C 62.609375 -0.25 61.953125 0 61.171875 0 Z M 9.921875 0 "></path>
      </g>
    </g>
  </g>
  <g fill="#e34234" fill-opacity="1">
    <g transform="translate(156.171443, 228.477261)">
      <g>
        <path d="M 9.921875 0 C 9.210938 0 8.59375 -0.265625 8.0625 -0.796875 C 7.53125 -1.328125 7.265625 -1.953125 7.265625 -2.671875 L 7.265625 -71.953125 C 7.265625 -72.742188 7.507812 -73.40625 8 -73.9375 C 8.5 -74.46875 9.140625 -74.734375 9.921875 -74.734375 L 38.015625 -74.734375 C 48.546875 -74.734375 56.726562 -72.222656 62.5625 -67.203125 C 68.394531 -62.191406 71.457031 -54.988281 71.75 -45.59375 C 71.820312 -43.53125 71.859375 -40.789062 71.859375 -37.375 C 71.859375 -33.957031 71.820312 -31.25 71.75 -29.25 C 71.03125 -9.75 59.960938 0 38.546875 0 Z M 38.015625 -16.015625 C 42.492188 -16.015625 45.800781 -17.082031 47.9375 -19.21875 C 50.070312 -21.351562 51.210938 -24.769531 51.359375 -29.46875 C 51.492188 -31.53125 51.5625 -34.195312 51.5625 -37.46875 C 51.5625 -40.75 51.492188 -43.382812 51.359375 -45.375 C 51.210938 -49.925781 49.984375 -53.285156 47.671875 -55.453125 C 45.359375 -57.628906 41.957031 -58.71875 37.46875 -58.71875 L 27.328125 -58.71875 L 27.328125 -16.015625 Z M 38.015625 -16.015625 "></path>
      </g>
    </g>
  </g>
  <g fill="#e34234" fill-opacity="1">
    <g transform="translate(232.933743, 228.477261)">
      <g>
        <path d="M 35.546875 1.0625 C 28.648438 1.0625 22.78125 0.0664062 17.9375 -1.921875 C 13.09375 -3.910156 9.425781 -6.539062 6.9375 -9.8125 C 4.445312 -13.09375 3.128906 -16.65625 2.984375 -20.5 C 2.984375 -21.132812 3.210938 -21.664062 3.671875 -22.09375 C 4.140625 -22.519531 4.695312 -22.734375 5.34375 -22.734375 L 19.53125 -22.734375 C 20.382812 -22.734375 21.078125 -22.59375 21.609375 -22.3125 C 22.148438 -22.03125 22.738281 -21.53125 23.375 -20.8125 C 24.300781 -19.101562 25.742188 -17.695312 27.703125 -16.59375 C 29.660156 -15.5 32.273438 -14.953125 35.546875 -14.953125 C 39.390625 -14.953125 42.34375 -15.535156 44.40625 -16.703125 C 46.476562 -17.878906 47.515625 -19.5 47.515625 -21.5625 C 47.515625 -23.0625 46.976562 -24.289062 45.90625 -25.25 C 44.84375 -26.207031 43.132812 -27.0625 40.78125 -27.8125 C 38.4375 -28.5625 35.054688 -29.398438 30.640625 -30.328125 C 22.023438 -32.035156 15.582031 -34.628906 11.3125 -38.109375 C 7.039062 -41.597656 4.90625 -46.582031 4.90625 -53.0625 C 4.90625 -57.476562 6.132812 -61.410156 8.59375 -64.859375 C 11.050781 -68.304688 14.539062 -70.988281 19.0625 -72.90625 C 23.582031 -74.832031 28.832031 -75.796875 34.8125 -75.796875 C 41.070312 -75.796875 46.492188 -74.710938 51.078125 -72.546875 C 55.671875 -70.378906 59.195312 -67.675781 61.65625 -64.4375 C 64.113281 -61.195312 65.410156 -58.007812 65.546875 -54.875 C 65.546875 -54.238281 65.332031 -53.6875 64.90625 -53.21875 C 64.476562 -52.757812 63.945312 -52.53125 63.3125 -52.53125 L 48.359375 -52.53125 C 46.796875 -52.53125 45.585938 -53.171875 44.734375 -54.453125 C 44.304688 -55.941406 43.203125 -57.203125 41.421875 -58.234375 C 39.640625 -59.265625 37.4375 -59.78125 34.8125 -59.78125 C 31.820312 -59.78125 29.503906 -59.242188 27.859375 -58.171875 C 26.222656 -57.109375 25.40625 -55.546875 25.40625 -53.484375 C 25.40625 -51.421875 26.472656 -49.800781 28.609375 -48.625 C 30.742188 -47.457031 34.734375 -46.269531 40.578125 -45.0625 C 47.265625 -43.84375 52.582031 -42.328125 56.53125 -40.515625 C 60.476562 -38.703125 63.394531 -36.351562 65.28125 -33.46875 C 67.164062 -30.582031 68.109375 -26.9375 68.109375 -22.53125 C 68.109375 -17.6875 66.71875 -13.484375 63.9375 -9.921875 C 61.164062 -6.367188 57.328125 -3.648438 52.421875 -1.765625 C 47.515625 0.117188 41.890625 1.0625 35.546875 1.0625 Z M 35.546875 1.0625 "></path>
      </g>
    </g>
  </g>
  <g fill="#e34234" fill-opacity="1">
    <g transform="translate(304.037634, 228.477261)">
      <g>
        <path d="M 26.484375 0 C 25.691406 0 25.03125 -0.25 24.5 -0.75 C 23.96875 -1.25 23.703125 -1.890625 23.703125 -2.671875 L 23.703125 -57.328125 L 4.90625 -57.328125 C 4.125 -57.328125 3.46875 -57.578125 2.9375 -58.078125 C 2.40625 -58.578125 2.140625 -59.21875 2.140625 -60 L 2.140625 -71.953125 C 2.140625 -72.742188 2.40625 -73.40625 2.9375 -73.9375 C 3.46875 -74.46875 4.125 -74.734375 4.90625 -74.734375 L 62.890625 -74.734375 C 63.671875 -74.734375 64.328125 -74.46875 64.859375 -73.9375 C 65.390625 -73.40625 65.65625 -72.742188 65.65625 -71.953125 L 65.65625 -60 C 65.65625 -59.21875 65.390625 -58.578125 64.859375 -58.078125 C 64.328125 -57.578125 63.671875 -57.328125 62.890625 -57.328125 L 44.09375 -57.328125 L 44.09375 -2.671875 C 44.09375 -1.890625 43.828125 -1.25 43.296875 -0.75 C 42.765625 -0.25 42.101562 0 41.3125 0 Z M 26.484375 0 "></path>
      </g>
    </g>
  </g>
</svg>
