<?xml version="1.0" encoding="UTF-8"?>
<svg xmlns="http://www.w3.org/2000/svg" xmlns:xlink="http://www.w3.org/1999/xlink" width="512" zoomAndPan="magnify" viewBox="0 0 384 383.999986" height="512" preserveAspectRatio="xMidYMid meet" version="1.0">
  <path fill="#e34234" d="M 168.765625 20.296875 C 165.34375 20.875 161.941406 21.554688 158.5625 22.339844 C 155.183594 23.125 151.832031 24.011719 148.507812 25.003906 C 145.179688 25.992188 141.886719 27.078125 138.628906 28.269531 C 135.367188 29.457031 132.148438 30.742188 128.96875 32.128906 C 125.785156 33.511719 122.648438 34.992188 119.558594 36.566406 C 116.464844 38.140625 113.425781 39.808594 110.433594 41.570312 C 107.445312 43.328125 104.511719 45.175781 101.632812 47.117188 C 98.753906 49.054688 95.9375 51.078125 93.183594 53.183594 C 90.429688 55.292969 87.742188 57.484375 85.117188 59.757812 C 82.496094 62.027344 79.945312 64.378906 77.46875 66.804688 C 74.988281 69.234375 72.585938 71.734375 70.257812 74.304688 C 67.929688 76.878906 65.683594 79.519531 63.515625 82.230469 C 61.347656 84.941406 59.265625 87.710938 57.265625 90.550781 C 55.269531 93.386719 53.359375 96.277344 51.535156 99.230469 C 49.714844 102.183594 47.980469 105.1875 46.339844 108.246094 C 44.699219 111.304688 43.15625 114.40625 41.703125 117.558594 C 40.25 120.710938 38.898438 123.902344 37.640625 127.136719 C 36.382812 130.367188 35.222656 133.636719 34.164062 136.941406 C 33.105469 140.246094 32.148438 143.578125 31.289062 146.941406 C 30.433594 150.300781 29.679688 153.6875 29.027344 157.09375 C 28.375 160.503906 27.828125 163.925781 27.386719 167.367188 C 26.941406 170.808594 26.605469 174.261719 26.371094 177.722656 C 26.136719 181.183594 26.007812 184.648438 25.988281 188.117188 C 25.964844 191.589844 26.046875 195.054688 26.234375 198.519531 C 26.421875 201.984375 26.714844 205.441406 27.109375 208.886719 C 27.507812 212.332031 28.011719 215.765625 28.617188 219.179688 C 29.222656 222.597656 29.929688 225.992188 30.742188 229.363281 C 31.554688 232.738281 32.46875 236.082031 33.484375 239.402344 C 34.5 242.71875 35.613281 246.003906 36.828125 249.253906 C 38.042969 252.503906 39.355469 255.710938 40.765625 258.882812 C 42.175781 262.050781 43.679688 265.175781 45.277344 268.257812 C 46.878906 271.335938 48.570312 274.363281 50.351562 277.339844 L 36.472656 328.746094 C 36.378906 329.105469 36.296875 329.46875 36.226562 329.832031 C 36.15625 330.199219 36.097656 330.566406 36.050781 330.933594 C 36.003906 331.304688 35.972656 331.671875 35.949219 332.042969 C 35.925781 332.414062 35.917969 332.785156 35.917969 333.15625 C 35.921875 333.527344 35.933594 333.898438 35.960938 334.269531 C 35.984375 334.640625 36.023438 335.011719 36.074219 335.378906 C 36.125 335.746094 36.1875 336.113281 36.261719 336.476562 C 36.332031 336.84375 36.417969 337.203125 36.515625 337.5625 C 36.613281 337.921875 36.722656 338.277344 36.84375 338.628906 C 36.964844 338.980469 37.09375 339.324219 37.238281 339.667969 C 37.382812 340.011719 37.535156 340.351562 37.699219 340.683594 C 37.867188 341.015625 38.042969 341.34375 38.226562 341.664062 C 38.414062 341.984375 38.609375 342.300781 38.816406 342.609375 C 39.023438 342.917969 39.242188 343.21875 39.46875 343.515625 C 39.695312 343.808594 39.929688 344.097656 40.175781 344.375 C 40.421875 344.65625 40.675781 344.925781 40.9375 345.1875 C 41.199219 345.453125 41.472656 345.707031 41.75 345.949219 C 42.03125 346.195312 42.316406 346.429688 42.609375 346.65625 C 42.90625 346.882812 43.207031 347.101562 43.515625 347.308594 C 43.824219 347.515625 44.140625 347.710938 44.460938 347.898438 C 44.78125 348.082031 45.109375 348.257812 45.441406 348.425781 C 45.777344 348.589844 46.113281 348.742188 46.457031 348.886719 C 46.800781 349.03125 47.148438 349.160156 47.5 349.28125 C 47.851562 349.402344 48.207031 349.511719 48.5625 349.609375 C 48.921875 349.707031 49.285156 349.792969 49.648438 349.867188 C 50.011719 349.941406 50.378906 350 50.746094 350.050781 C 51.113281 350.101562 51.484375 350.140625 51.855469 350.164062 C 52.226562 350.191406 52.597656 350.207031 52.96875 350.207031 C 53.339844 350.210938 53.710938 350.199219 54.082031 350.175781 C 54.453125 350.15625 54.824219 350.121094 55.191406 350.074219 C 55.558594 350.027344 55.925781 349.96875 56.292969 349.898438 C 56.65625 349.828125 57.019531 349.746094 57.378906 349.652344 L 108.789062 335.773438 C 111.730469 337.554688 114.726562 339.25 117.773438 340.851562 C 120.816406 342.457031 123.910156 343.964844 127.046875 345.382812 C 130.183594 346.800781 133.359375 348.121094 136.574219 349.347656 C 139.792969 350.574219 143.042969 351.699219 146.328125 352.730469 C 149.609375 353.757812 152.921875 354.691406 156.265625 355.519531 C 159.605469 356.351562 162.96875 357.078125 166.351562 357.707031 C 169.734375 358.332031 173.136719 358.859375 176.550781 359.28125 C 179.96875 359.703125 183.394531 360.023438 186.828125 360.238281 C 190.261719 360.457031 193.703125 360.566406 197.144531 360.578125 C 200.585938 360.585938 204.023438 360.492188 207.460938 360.292969 C 210.898438 360.09375 214.324219 359.792969 217.742188 359.386719 C 221.160156 358.984375 224.5625 358.476562 227.953125 357.867188 C 231.339844 357.257812 234.707031 356.546875 238.050781 355.734375 C 241.394531 354.917969 244.710938 354.007812 248 352.996094 C 251.292969 351.980469 254.546875 350.871094 257.769531 349.664062 C 260.992188 348.453125 264.175781 347.148438 267.320312 345.75 C 270.464844 344.347656 273.5625 342.855469 276.617188 341.265625 C 279.671875 339.679688 282.675781 338 285.628906 336.234375 C 288.582031 334.464844 291.480469 332.609375 294.320312 330.664062 C 297.160156 328.722656 299.941406 326.695312 302.660156 324.585938 C 305.378906 322.476562 308.03125 320.285156 310.621094 318.015625 C 313.207031 315.746094 315.722656 313.398438 318.167969 310.976562 C 320.613281 308.554688 322.984375 306.0625 325.28125 303.496094 C 327.574219 300.929688 329.792969 298.300781 331.929688 295.601562 C 334.066406 292.902344 336.121094 290.140625 338.089844 287.320312 C 340.0625 284.5 341.945312 281.621094 343.742188 278.683594 C 345.539062 275.75 347.246094 272.761719 348.863281 269.722656 C 350.480469 266.683594 352.003906 263.601562 353.433594 260.46875 C 354.867188 257.339844 356.203125 254.167969 357.441406 250.957031 C 358.683594 247.746094 359.824219 244.5 360.871094 241.222656 C 361.914062 237.941406 362.859375 234.632812 363.703125 231.296875 C 364.550781 227.960938 365.292969 224.601562 365.9375 221.21875 C 366.578125 217.839844 367.121094 214.441406 367.558594 211.027344 C 367.996094 207.613281 368.332031 204.1875 368.5625 200.753906 C 368.792969 197.320312 368.921875 193.882812 368.949219 190.441406 C 368.972656 187 368.894531 183.558594 368.710938 180.121094 C 368.527344 176.683594 368.242188 173.257812 367.851562 169.835938 C 367.464844 166.417969 366.972656 163.011719 366.378906 159.621094 C 365.78125 156.230469 365.085938 152.863281 364.289062 149.511719 C 363.492188 146.164062 362.59375 142.84375 361.597656 139.550781 C 360.597656 136.253906 359.503906 132.992188 358.308594 129.765625 C 357.113281 126.539062 355.824219 123.347656 354.4375 120.199219 C 353.050781 117.046875 351.574219 113.941406 350 110.878906 C 348.425781 107.820312 346.761719 104.808594 345.007812 101.847656 C 343.25 98.886719 341.410156 95.980469 339.480469 93.128906 C 337.550781 90.28125 335.535156 87.492188 333.4375 84.761719 C 331.339844 82.03125 329.160156 79.371094 326.902344 76.773438 C 324.644531 74.175781 322.308594 71.648438 319.898438 69.191406 C 317.488281 66.734375 315.003906 64.351562 312.449219 62.046875 C 309.894531 59.738281 307.273438 57.511719 304.585938 55.363281 C 301.898438 53.210938 299.144531 51.144531 296.332031 49.164062 C 293.519531 47.179688 290.648438 45.28125 287.722656 43.472656 C 284.796875 41.660156 281.816406 39.941406 278.785156 38.308594 C 275.753906 36.679688 272.675781 35.140625 269.550781 33.695312 C 266.429688 32.25 263.265625 30.898438 260.058594 29.644531 C 256.855469 28.390625 253.613281 27.234375 250.339844 26.175781 C 247.0625 25.113281 243.761719 24.15625 240.425781 23.292969 C 237.09375 22.433594 233.738281 21.675781 230.359375 21.015625 C 226.980469 20.359375 223.585938 19.800781 220.175781 19.347656 C 216.761719 18.894531 213.339844 18.542969 209.90625 18.296875 C 206.472656 18.050781 203.035156 17.90625 199.59375 17.863281 C 196.152344 17.824219 192.714844 17.886719 189.277344 18.054688 C 185.835938 18.222656 182.40625 18.492188 178.984375 18.867188 C 175.5625 19.238281 172.15625 19.714844 168.765625 20.296875 Z M 168.765625 20.296875 " fill-opacity="1" fill-rule="nonzero"></path>
  <path fill="#ffcc00" d="M 263.871094 209.992188 C 242.988281 231.261719 220.765625 251.023438 197.210938 269.285156 C 173.652344 251.023438 151.433594 231.261719 130.550781 209.992188 C 129.449219 208.859375 128.402344 207.675781 127.417969 206.441406 C 126.429688 205.203125 125.503906 203.925781 124.636719 202.601562 C 123.773438 201.277344 122.976562 199.914062 122.242188 198.511719 C 121.511719 197.113281 120.847656 195.679688 120.25 194.214844 C 119.65625 192.75 119.132812 191.257812 118.683594 189.742188 C 118.234375 188.226562 117.855469 186.695312 117.554688 185.140625 C 117.25 183.589844 117.023438 182.027344 116.871094 180.453125 C 116.71875 178.878906 116.640625 177.300781 116.640625 175.71875 C 116.640625 174.140625 116.71875 172.5625 116.871094 170.988281 C 117.023438 169.414062 117.25 167.851562 117.554688 166.300781 C 117.855469 164.746094 118.234375 163.214844 118.683594 161.699219 C 119.132812 160.183594 119.65625 158.691406 120.25 157.226562 C 120.847656 155.761719 121.511719 154.328125 122.242188 152.925781 C 122.976562 151.527344 123.773438 150.164062 124.636719 148.839844 C 125.503906 147.515625 126.429688 146.234375 127.417969 145 C 128.402344 143.765625 129.449219 142.582031 130.550781 141.449219 C 131.539062 140.449219 132.578125 139.5 133.660156 138.601562 C 134.742188 137.703125 135.867188 136.863281 137.035156 136.074219 C 138.203125 135.289062 139.402344 134.5625 140.644531 133.894531 C 141.882812 133.226562 143.148438 132.625 144.449219 132.082031 C 145.746094 131.539062 147.070312 131.0625 148.414062 130.652344 C 149.757812 130.242188 151.121094 129.898438 152.5 129.621094 C 153.882812 129.34375 155.269531 129.136719 156.671875 129 C 158.070312 128.859375 159.472656 128.789062 160.882812 128.789062 C 162.289062 128.789062 163.691406 128.859375 165.09375 129 C 166.492188 129.136719 167.882812 129.34375 169.261719 129.621094 C 170.640625 129.898438 172.003906 130.242188 173.347656 130.652344 C 174.695312 131.0625 176.015625 131.539062 177.316406 132.082031 C 178.613281 132.625 179.882812 133.226562 181.121094 133.894531 C 182.359375 134.5625 183.5625 135.289062 184.726562 136.074219 C 185.894531 136.863281 187.019531 137.703125 188.101562 138.601562 C 189.1875 139.5 190.222656 140.449219 191.210938 141.449219 L 197.210938 147.445312 L 203.207031 141.449219 C 204.199219 140.449219 205.234375 139.5 206.316406 138.601562 C 207.402344 137.703125 208.527344 136.863281 209.691406 136.074219 C 210.859375 135.289062 212.0625 134.5625 213.300781 133.894531 C 214.539062 133.226562 215.808594 132.625 217.105469 132.082031 C 218.402344 131.539062 219.726562 131.0625 221.070312 130.652344 C 222.417969 130.242188 223.78125 129.898438 225.160156 129.621094 C 226.539062 129.34375 227.929688 129.136719 229.328125 129 C 230.730469 128.859375 232.132812 128.789062 233.539062 128.789062 C 234.945312 128.789062 236.347656 128.859375 237.75 129 C 239.148438 129.136719 240.539062 129.34375 241.917969 129.621094 C 243.296875 129.898438 244.660156 130.242188 246.007812 130.652344 C 247.351562 131.0625 248.671875 131.539062 249.972656 132.082031 C 251.269531 132.625 252.539062 133.226562 253.777344 133.894531 C 255.015625 134.5625 256.21875 135.289062 257.386719 136.074219 C 258.550781 136.863281 259.675781 137.703125 260.761719 138.601562 C 261.84375 139.5 262.878906 140.449219 263.871094 141.449219 C 264.972656 142.582031 266.015625 143.765625 267.003906 145 C 267.992188 146.234375 268.917969 147.515625 269.78125 148.839844 C 270.644531 150.164062 271.445312 151.527344 272.175781 152.925781 C 272.910156 154.328125 273.574219 155.761719 274.167969 157.226562 C 274.761719 158.691406 275.285156 160.183594 275.738281 161.699219 C 276.1875 163.214844 276.566406 164.746094 276.867188 166.300781 C 277.171875 167.851562 277.398438 169.414062 277.550781 170.988281 C 277.703125 172.5625 277.777344 174.140625 277.777344 175.71875 C 277.777344 177.300781 277.703125 178.878906 277.550781 180.453125 C 277.398438 182.027344 277.171875 183.589844 276.867188 185.140625 C 276.566406 186.695312 276.1875 188.226562 275.738281 189.742188 C 275.285156 191.257812 274.761719 192.75 274.167969 194.214844 C 273.574219 195.679688 272.910156 197.113281 272.175781 198.511719 C 271.445312 199.914062 270.644531 201.277344 269.78125 202.601562 C 268.917969 203.925781 267.992188 205.203125 267.003906 206.441406 C 266.015625 207.675781 264.972656 208.859375 263.871094 209.992188 Z M 263.871094 209.992188 " fill-opacity="1" fill-rule="nonzero"></path>
</svg>
