<?xml version="1.0" encoding="UTF-8"?>
<svg xmlns="http://www.w3.org/2000/svg" xmlns:xlink="http://www.w3.org/1999/xlink" width="512" zoomAndPan="magnify" viewBox="0 0 384 383.999986" height="512" preserveAspectRatio="xMidYMid meet" version="1.0">
  <defs>
    <g></g>
    <clipPath id="68ba771da3">
      <path d="M 192 0 C 85.960938 0 0 85.960938 0 192 C 0 298.039062 85.960938 384 192 384 C 298.039062 384 384 298.039062 384 192 C 384 85.960938 298.039062 0 192 0 Z M 192 0 " clip-rule="nonzero"></path>
    </clipPath>
  </defs>
  <g clip-path="url(#68ba771da3)">
    <rect x="-38.4" width="460.8" fill="#e34234" y="-38.399999" height="460.799983" fill-opacity="1"></rect>
  </g>
  <g fill="#ffcc00" fill-opacity="1">
    <g transform="translate(62.777658, 254.280611)">
      <g>
        <path d="M 17.109375 0 C 15.878906 0 14.800781 -0.457031 13.875 -1.375 C 12.957031 -2.300781 12.5 -3.375 12.5 -4.59375 L 12.5 -123.96875 C 12.5 -125.3125 12.925781 -126.441406 13.78125 -127.359375 C 14.644531 -128.285156 15.753906 -128.75 17.109375 -128.75 L 37.890625 -128.75 C 40.710938 -128.75 42.796875 -127.582031 44.140625 -125.25 L 87.546875 -56.640625 L 87.546875 -123.96875 C 87.546875 -125.3125 87.972656 -126.441406 88.828125 -127.359375 C 89.691406 -128.285156 90.796875 -128.75 92.140625 -128.75 L 115.5 -128.75 C 116.851562 -128.75 117.957031 -128.285156 118.8125 -127.359375 C 119.664062 -126.441406 120.09375 -125.3125 120.09375 -123.96875 L 120.09375 -4.78125 C 120.09375 -3.4375 119.664062 -2.300781 118.8125 -1.375 C 117.957031 -0.457031 116.851562 0 115.5 0 L 94.71875 0 C 91.894531 0 89.8125 -1.164062 88.46875 -3.5 L 45.25 -69.34375 L 45.25 -4.59375 C 45.25 -3.25 44.785156 -2.144531 43.859375 -1.28125 C 42.941406 -0.425781 41.8125 0 40.46875 0 Z M 17.109375 0 "></path>
      </g>
    </g>
  </g>
  <g fill="#ffcc00" fill-opacity="1">
    <g transform="translate(195.376037, 254.280611)">
      <g>
        <path d="M 50.203125 0 C 48.984375 0 47.910156 -0.457031 46.984375 -1.375 C 46.066406 -2.300781 45.609375 -3.375 45.609375 -4.59375 L 45.609375 -43.765625 L 3.125 -122.859375 C 2.757812 -123.472656 2.578125 -124.148438 2.578125 -124.890625 C 2.578125 -125.867188 2.972656 -126.753906 3.765625 -127.546875 C 4.566406 -128.347656 5.457031 -128.75 6.4375 -128.75 L 30.71875 -128.75 C 32.4375 -128.75 33.84375 -128.316406 34.9375 -127.453125 C 36.039062 -126.597656 36.84375 -125.679688 37.34375 -124.703125 L 62.90625 -78.53125 L 88.46875 -124.703125 C 88.957031 -125.679688 89.753906 -126.597656 90.859375 -127.453125 C 91.960938 -128.316406 93.375 -128.75 95.09375 -128.75 L 119.359375 -128.75 C 120.347656 -128.75 121.238281 -128.347656 122.03125 -127.546875 C 122.832031 -126.753906 123.234375 -125.867188 123.234375 -124.890625 C 123.234375 -124.148438 123.046875 -123.472656 122.671875 -122.859375 L 80.1875 -43.765625 L 80.1875 -4.59375 C 80.1875 -3.25 79.726562 -2.144531 78.8125 -1.28125 C 77.894531 -0.425781 76.757812 0 75.40625 0 Z M 50.203125 0 "></path>
      </g>
    </g>
  </g>
</svg>
