<?xml version="1.0" encoding="UTF-8"?>
<svg xmlns="http://www.w3.org/2000/svg" xmlns:xlink="http://www.w3.org/1999/xlink" width="512" zoomAndPan="magnify" viewBox="0 0 384 383.999986" height="512" preserveAspectRatio="xMidYMid meet" version="1.0">
  <defs>
    <g></g>
    <clipPath id="7f55108ba9">
      <path d="M 192 0 L 220.34375 41.367188 L 261.65625 13.078125 L 273.207031 61.933594 L 321.902344 50.539062 L 315.101562 100.289062 L 364.605469 107.332031 L 340.371094 151.253906 L 384 175.78125 L 345.601562 207.941406 L 377.460938 246.644531 L 330.085938 262.703125 L 345.875 310.347656 L 295.921875 308.136719 L 293.507812 358.292969 L 247.722656 338.105469 L 227.429688 384 L 192 348.566406 L 156.570312 384 L 136.277344 338.105469 L 90.492188 358.292969 L 88.078125 308.136719 L 38.125 310.347656 L 53.914062 262.703125 L 6.539062 246.644531 L 38.398438 207.941406 L 0 175.78125 L 43.628906 151.253906 L 19.390625 107.332031 L 68.898438 100.289062 L 62.097656 50.539062 L 110.792969 61.933594 L 122.34375 13.078125 L 163.65625 41.367188 Z M 192 0 " clip-rule="nonzero"></path>
    </clipPath>
  </defs>
  <g clip-path="url(#7f55108ba9)">
    <rect x="-38.4" width="460.8" fill="#e34234" y="-38.399999" height="460.799983" fill-opacity="1"></rect>
  </g>
  <g fill="#ffcc00" fill-opacity="1">
    <g transform="translate(43.72808, 218.165841)">
      <g>
        <path d="M 6.90625 0 C 6.414062 0 5.984375 -0.179688 5.609375 -0.546875 C 5.234375 -0.921875 5.046875 -1.359375 5.046875 -1.859375 L 5.046875 -50.09375 C 5.046875 -50.644531 5.21875 -51.101562 5.5625 -51.46875 C 5.914062 -51.84375 6.363281 -52.03125 6.90625 -52.03125 L 15.3125 -52.03125 C 16.445312 -52.03125 17.289062 -51.5625 17.84375 -50.625 L 35.375 -22.890625 L 35.375 -50.09375 C 35.375 -50.644531 35.546875 -51.101562 35.890625 -51.46875 C 36.242188 -51.84375 36.691406 -52.03125 37.234375 -52.03125 L 46.671875 -52.03125 C 47.222656 -52.03125 47.671875 -51.84375 48.015625 -51.46875 C 48.359375 -51.101562 48.53125 -50.644531 48.53125 -50.09375 L 48.53125 -1.9375 C 48.53125 -1.382812 48.359375 -0.921875 48.015625 -0.546875 C 47.671875 -0.179688 47.222656 0 46.671875 0 L 38.28125 0 C 37.132812 0 36.289062 -0.46875 35.75 -1.40625 L 18.28125 -28.015625 L 18.28125 -1.859375 C 18.28125 -1.316406 18.09375 -0.867188 17.71875 -0.515625 C 17.351562 -0.171875 16.898438 0 16.359375 0 Z M 6.90625 0 "></path>
      </g>
    </g>
  </g>
  <g fill="#ffcc00" fill-opacity="1">
    <g transform="translate(97.312975, 218.165841)">
      <g>
        <path d="M 20.296875 0 C 19.796875 0 19.359375 -0.179688 18.984375 -0.546875 C 18.617188 -0.921875 18.4375 -1.359375 18.4375 -1.859375 L 18.4375 -17.6875 L 1.265625 -49.65625 C 1.117188 -49.894531 1.046875 -50.164062 1.046875 -50.46875 C 1.046875 -50.863281 1.203125 -51.222656 1.515625 -51.546875 C 1.835938 -51.867188 2.195312 -52.03125 2.59375 -52.03125 L 12.40625 -52.03125 C 13.101562 -52.03125 13.675781 -51.851562 14.125 -51.5 C 14.570312 -51.15625 14.894531 -50.785156 15.09375 -50.390625 L 25.421875 -31.734375 L 35.75 -50.390625 C 35.945312 -50.785156 36.269531 -51.15625 36.71875 -51.5 C 37.164062 -51.851562 37.734375 -52.03125 38.421875 -52.03125 L 48.234375 -52.03125 C 48.628906 -52.03125 48.988281 -51.867188 49.3125 -51.546875 C 49.632812 -51.222656 49.796875 -50.863281 49.796875 -50.46875 C 49.796875 -50.164062 49.722656 -49.894531 49.578125 -49.65625 L 32.40625 -17.6875 L 32.40625 -1.859375 C 32.40625 -1.316406 32.21875 -0.867188 31.84375 -0.515625 C 31.476562 -0.171875 31.019531 0 30.46875 0 Z M 20.296875 0 "></path>
      </g>
    </g>
  </g>
  <g fill="#ffcc00" fill-opacity="1">
    <g transform="translate(148.148028, 218.165841)">
      <g>
        <path d="M 6.90625 0 C 6.414062 0 5.984375 -0.179688 5.609375 -0.546875 C 5.234375 -0.921875 5.046875 -1.359375 5.046875 -1.859375 L 5.046875 -50.09375 C 5.046875 -50.644531 5.21875 -51.101562 5.5625 -51.46875 C 5.914062 -51.84375 6.363281 -52.03125 6.90625 -52.03125 L 42 -52.03125 C 42.539062 -52.03125 42.992188 -51.84375 43.359375 -51.46875 C 43.734375 -51.101562 43.921875 -50.644531 43.921875 -50.09375 L 43.921875 -42.734375 C 43.921875 -42.191406 43.734375 -41.742188 43.359375 -41.390625 C 42.992188 -41.046875 42.539062 -40.875 42 -40.875 L 18.5 -40.875 L 18.5 -31.4375 L 40.359375 -31.4375 C 40.898438 -31.4375 41.359375 -31.25 41.734375 -30.875 C 42.109375 -30.507812 42.296875 -30.054688 42.296875 -29.515625 L 42.296875 -22.75 C 42.296875 -22.195312 42.109375 -21.734375 41.734375 -21.359375 C 41.359375 -20.992188 40.898438 -20.8125 40.359375 -20.8125 L 18.5 -20.8125 L 18.5 -11.15625 L 42.59375 -11.15625 C 43.132812 -11.15625 43.585938 -10.96875 43.953125 -10.59375 C 44.328125 -10.21875 44.515625 -9.757812 44.515625 -9.21875 L 44.515625 -1.859375 C 44.515625 -1.316406 44.328125 -0.867188 43.953125 -0.515625 C 43.585938 -0.171875 43.132812 0 42.59375 0 Z M 6.90625 0 "></path>
      </g>
    </g>
  </g>
  <g fill="#ffcc00" fill-opacity="1">
    <g transform="translate(195.861624, 218.165841)">
      <g>
        <path d="M 24.75 0.75 C 19.945312 0.75 15.859375 0.0546875 12.484375 -1.328125 C 9.117188 -2.722656 6.566406 -4.554688 4.828125 -6.828125 C 3.097656 -9.109375 2.179688 -11.585938 2.078125 -14.265625 C 2.078125 -14.710938 2.238281 -15.082031 2.5625 -15.375 C 2.882812 -15.675781 3.269531 -15.828125 3.71875 -15.828125 L 13.609375 -15.828125 C 14.203125 -15.828125 14.679688 -15.726562 15.046875 -15.53125 C 15.421875 -15.332031 15.832031 -14.988281 16.28125 -14.5 C 16.925781 -13.300781 17.925781 -12.316406 19.28125 -11.546875 C 20.644531 -10.785156 22.46875 -10.40625 24.75 -10.40625 C 27.425781 -10.40625 29.484375 -10.8125 30.921875 -11.625 C 32.359375 -12.445312 33.078125 -13.578125 33.078125 -15.015625 C 33.078125 -16.054688 32.703125 -16.910156 31.953125 -17.578125 C 31.210938 -18.242188 30.023438 -18.835938 28.390625 -19.359375 C 26.753906 -19.878906 24.398438 -20.460938 21.328125 -21.109375 C 15.335938 -22.296875 10.851562 -24.101562 7.875 -26.53125 C 4.90625 -28.957031 3.421875 -32.425781 3.421875 -36.9375 C 3.421875 -40.007812 4.273438 -42.75 5.984375 -45.15625 C 7.691406 -47.5625 10.117188 -49.429688 13.265625 -50.765625 C 16.410156 -52.097656 20.066406 -52.765625 24.234375 -52.765625 C 28.585938 -52.765625 32.363281 -52.007812 35.5625 -50.5 C 38.757812 -48.988281 41.210938 -47.101562 42.921875 -44.84375 C 44.628906 -42.59375 45.535156 -40.378906 45.640625 -38.203125 C 45.640625 -37.753906 45.488281 -37.367188 45.1875 -37.046875 C 44.894531 -36.722656 44.523438 -36.5625 44.078125 -36.5625 L 33.671875 -36.5625 C 32.578125 -36.5625 31.734375 -37.007812 31.140625 -37.90625 C 30.847656 -38.945312 30.082031 -39.828125 28.84375 -40.546875 C 27.601562 -41.265625 26.066406 -41.625 24.234375 -41.625 C 22.148438 -41.625 20.535156 -41.25 19.390625 -40.5 C 18.253906 -39.757812 17.6875 -38.671875 17.6875 -37.234375 C 17.6875 -35.796875 18.429688 -34.664062 19.921875 -33.84375 C 21.410156 -33.03125 24.1875 -32.203125 28.25 -31.359375 C 32.90625 -30.523438 36.609375 -29.472656 39.359375 -28.203125 C 42.109375 -26.941406 44.140625 -25.304688 45.453125 -23.296875 C 46.765625 -21.296875 47.421875 -18.757812 47.421875 -15.6875 C 47.421875 -12.3125 46.453125 -9.382812 44.515625 -6.90625 C 42.585938 -4.4375 39.910156 -2.539062 36.484375 -1.21875 C 33.066406 0.09375 29.15625 0.75 24.75 0.75 Z M 24.75 0.75 "></path>
      </g>
    </g>
  </g>
  <g fill="#ffcc00" fill-opacity="1">
    <g transform="translate(245.358908, 218.165841)">
      <g>
        <path d="M 18.4375 0 C 17.882812 0 17.421875 -0.171875 17.046875 -0.515625 C 16.679688 -0.867188 16.5 -1.316406 16.5 -1.859375 L 16.5 -39.921875 L 3.421875 -39.921875 C 2.867188 -39.921875 2.40625 -40.09375 2.03125 -40.4375 C 1.664062 -40.78125 1.484375 -41.222656 1.484375 -41.765625 L 1.484375 -50.09375 C 1.484375 -50.644531 1.664062 -51.101562 2.03125 -51.46875 C 2.40625 -51.84375 2.867188 -52.03125 3.421875 -52.03125 L 43.78125 -52.03125 C 44.320312 -52.03125 44.78125 -51.84375 45.15625 -51.46875 C 45.53125 -51.101562 45.71875 -50.644531 45.71875 -50.09375 L 45.71875 -41.765625 C 45.71875 -41.222656 45.53125 -40.78125 45.15625 -40.4375 C 44.78125 -40.09375 44.320312 -39.921875 43.78125 -39.921875 L 30.703125 -39.921875 L 30.703125 -1.859375 C 30.703125 -1.316406 30.515625 -0.867188 30.140625 -0.515625 C 29.765625 -0.171875 29.304688 0 28.765625 0 Z M 18.4375 0 "></path>
      </g>
    </g>
  </g>
  <g fill="#ffcc00" fill-opacity="1">
    <g transform="translate(292.55228, 218.165841)">
      <g>
        <path d="M 6.90625 0 C 6.414062 0 5.984375 -0.179688 5.609375 -0.546875 C 5.234375 -0.921875 5.046875 -1.359375 5.046875 -1.859375 L 5.046875 -50.09375 C 5.046875 -50.644531 5.21875 -51.101562 5.5625 -51.46875 C 5.914062 -51.84375 6.363281 -52.03125 6.90625 -52.03125 L 42 -52.03125 C 42.539062 -52.03125 42.992188 -51.84375 43.359375 -51.46875 C 43.734375 -51.101562 43.921875 -50.644531 43.921875 -50.09375 L 43.921875 -42.734375 C 43.921875 -42.191406 43.734375 -41.742188 43.359375 -41.390625 C 42.992188 -41.046875 42.539062 -40.875 42 -40.875 L 18.5 -40.875 L 18.5 -31.4375 L 40.359375 -31.4375 C 40.898438 -31.4375 41.359375 -31.25 41.734375 -30.875 C 42.109375 -30.507812 42.296875 -30.054688 42.296875 -29.515625 L 42.296875 -22.75 C 42.296875 -22.195312 42.109375 -21.734375 41.734375 -21.359375 C 41.359375 -20.992188 40.898438 -20.8125 40.359375 -20.8125 L 18.5 -20.8125 L 18.5 -11.15625 L 42.59375 -11.15625 C 43.132812 -11.15625 43.585938 -10.96875 43.953125 -10.59375 C 44.328125 -10.21875 44.515625 -9.757812 44.515625 -9.21875 L 44.515625 -1.859375 C 44.515625 -1.316406 44.328125 -0.867188 43.953125 -0.515625 C 43.585938 -0.171875 43.132812 0 42.59375 0 Z M 6.90625 0 "></path>
      </g>
    </g>
  </g>
</svg>
