<?xml version="1.0" encoding="UTF-8"?>
<svg xmlns="http://www.w3.org/2000/svg" xmlns:xlink="http://www.w3.org/1999/xlink" width="512" zoomAndPan="magnify" viewBox="0 0 384 383.999986" height="512" preserveAspectRatio="xMidYMid meet" version="1.0">
  <defs>
    <g></g>
    <clipPath id="855622717a">
      <path d="M 192 0 C 85.960938 0 0 85.960938 0 192 C 0 298.039062 85.960938 384 192 384 C 298.039062 384 384 298.039062 384 192 C 384 85.960938 298.039062 0 192 0 Z M 192 0 " clip-rule="nonzero"></path>
    </clipPath>
  </defs>
  <g clip-path="url(#855622717a)">
    <rect x="-38.4" width="460.8" fill="#00a0e9" y="-38.399999" height="460.799983" fill-opacity="1"></rect>
  </g>
  <g fill="#ffcc00" fill-opacity="1">
    <g transform="translate(11.291034, 216.022835)">
      <g>
        <path d="M 6.625 0 C 6.144531 0 5.726562 -0.175781 5.375 -0.53125 C 5.019531 -0.882812 4.84375 -1.300781 4.84375 -1.78125 L 4.84375 -48.015625 C 4.84375 -48.546875 5.007812 -48.988281 5.34375 -49.34375 C 5.675781 -49.695312 6.101562 -49.875 6.625 -49.875 L 26.796875 -49.875 C 32.960938 -49.875 37.800781 -48.472656 41.3125 -45.671875 C 44.832031 -42.867188 46.59375 -38.757812 46.59375 -33.34375 C 46.59375 -27.925781 44.832031 -23.875 41.3125 -21.1875 C 37.800781 -18.507812 32.960938 -17.171875 26.796875 -17.171875 L 18.671875 -17.171875 L 18.671875 -1.78125 C 18.671875 -1.300781 18.503906 -0.882812 18.171875 -0.53125 C 17.835938 -0.175781 17.410156 0 16.890625 0 Z M 26.4375 -27.359375 C 28.382812 -27.359375 29.914062 -27.867188 31.03125 -28.890625 C 32.144531 -29.910156 32.703125 -31.421875 32.703125 -33.421875 C 32.703125 -35.265625 32.191406 -36.753906 31.171875 -37.890625 C 30.148438 -39.035156 28.570312 -39.609375 26.4375 -39.609375 L 18.453125 -39.609375 L 18.453125 -27.359375 Z M 26.4375 -27.359375 "></path>
      </g>
    </g>
  </g>
  <g fill="#ffcc00" fill-opacity="1">
    <g transform="translate(59.662604, 216.022835)">
      <g>
        <path d="M 25.5 0.71875 C 18.757812 0.71875 13.441406 -0.921875 9.546875 -4.203125 C 5.648438 -7.484375 3.582031 -12.304688 3.34375 -18.671875 C 3.300781 -19.992188 3.28125 -22.035156 3.28125 -24.796875 C 3.28125 -27.546875 3.300781 -29.613281 3.34375 -31 C 3.539062 -37.269531 5.617188 -42.101562 9.578125 -45.5 C 13.546875 -48.894531 18.851562 -50.59375 25.5 -50.59375 C 32.101562 -50.59375 37.390625 -48.894531 41.359375 -45.5 C 45.328125 -42.101562 47.40625 -37.269531 47.59375 -31 C 47.6875 -28.238281 47.734375 -26.171875 47.734375 -24.796875 C 47.734375 -23.367188 47.6875 -21.328125 47.59375 -18.671875 C 47.351562 -12.304688 45.296875 -7.484375 41.421875 -4.203125 C 37.554688 -0.921875 32.25 0.71875 25.5 0.71875 Z M 25.5 -9.96875 C 27.976562 -9.96875 29.953125 -10.71875 31.421875 -12.21875 C 32.890625 -13.71875 33.671875 -16.007812 33.765625 -19.09375 C 33.867188 -21.851562 33.921875 -23.828125 33.921875 -25.015625 C 33.921875 -26.203125 33.867188 -28.125 33.765625 -30.78125 C 33.671875 -33.863281 32.890625 -36.15625 31.421875 -37.65625 C 29.953125 -39.15625 27.976562 -39.90625 25.5 -39.90625 C 22.988281 -39.90625 20.992188 -39.15625 19.515625 -37.65625 C 18.046875 -36.15625 17.265625 -33.863281 17.171875 -30.78125 C 17.117188 -29.445312 17.09375 -27.523438 17.09375 -25.015625 C 17.09375 -22.441406 17.117188 -20.46875 17.171875 -19.09375 C 17.265625 -16.007812 18.046875 -13.71875 19.515625 -12.21875 C 20.992188 -10.71875 22.988281 -9.96875 25.5 -9.96875 Z M 25.5 -9.96875 "></path>
      </g>
    </g>
  </g>
  <g fill="#ffcc00" fill-opacity="1">
    <g transform="translate(110.598793, 216.022835)">
      <g>
        <path d="M 6.625 0 C 6.144531 0 5.726562 -0.175781 5.375 -0.53125 C 5.019531 -0.882812 4.84375 -1.300781 4.84375 -1.78125 L 4.84375 -48.015625 C 4.84375 -48.546875 5.007812 -48.988281 5.34375 -49.34375 C 5.675781 -49.695312 6.101562 -49.875 6.625 -49.875 L 26.796875 -49.875 C 32.960938 -49.875 37.800781 -48.472656 41.3125 -45.671875 C 44.832031 -42.867188 46.59375 -38.757812 46.59375 -33.34375 C 46.59375 -27.925781 44.832031 -23.875 41.3125 -21.1875 C 37.800781 -18.507812 32.960938 -17.171875 26.796875 -17.171875 L 18.671875 -17.171875 L 18.671875 -1.78125 C 18.671875 -1.300781 18.503906 -0.882812 18.171875 -0.53125 C 17.835938 -0.175781 17.410156 0 16.890625 0 Z M 26.4375 -27.359375 C 28.382812 -27.359375 29.914062 -27.867188 31.03125 -28.890625 C 32.144531 -29.910156 32.703125 -31.421875 32.703125 -33.421875 C 32.703125 -35.265625 32.191406 -36.753906 31.171875 -37.890625 C 30.148438 -39.035156 28.570312 -39.609375 26.4375 -39.609375 L 18.453125 -39.609375 L 18.453125 -27.359375 Z M 26.4375 -27.359375 "></path>
      </g>
    </g>
  </g>
  <g fill="#ffcc00" fill-opacity="1">
    <g transform="translate(158.970364, 216.022835)">
      <g>
        <path d="M 26 0.71875 C 19.257812 0.71875 13.976562 -0.921875 10.15625 -4.203125 C 6.332031 -7.484375 4.421875 -12.398438 4.421875 -18.953125 L 4.421875 -48.015625 C 4.421875 -48.546875 4.585938 -48.988281 4.921875 -49.34375 C 5.253906 -49.695312 5.679688 -49.875 6.203125 -49.875 L 15.953125 -49.875 C 16.484375 -49.875 16.925781 -49.695312 17.28125 -49.34375 C 17.632812 -48.988281 17.8125 -48.546875 17.8125 -48.015625 L 17.8125 -19.09375 C 17.8125 -16.144531 18.507812 -13.9375 19.90625 -12.46875 C 21.3125 -11 23.320312 -10.265625 25.9375 -10.265625 C 28.550781 -10.265625 30.554688 -11.007812 31.953125 -12.5 C 33.359375 -14 34.0625 -16.195312 34.0625 -19.09375 L 34.0625 -48.015625 C 34.0625 -48.546875 34.238281 -48.988281 34.59375 -49.34375 C 34.945312 -49.695312 35.382812 -49.875 35.90625 -49.875 L 45.59375 -49.875 C 46.125 -49.875 46.566406 -49.695312 46.921875 -49.34375 C 47.273438 -48.988281 47.453125 -48.546875 47.453125 -48.015625 L 47.453125 -18.953125 C 47.453125 -12.398438 45.550781 -7.484375 41.75 -4.203125 C 37.945312 -0.921875 32.695312 0.71875 26 0.71875 Z M 26 0.71875 "></path>
      </g>
    </g>
  </g>
  <g fill="#ffcc00" fill-opacity="1">
    <g transform="translate(210.832663, 216.022835)">
      <g>
        <path d="M 6.625 0 C 6.144531 0 5.726562 -0.175781 5.375 -0.53125 C 5.019531 -0.882812 4.84375 -1.300781 4.84375 -1.78125 L 4.84375 -48.09375 C 4.84375 -48.613281 5.019531 -49.039062 5.375 -49.375 C 5.726562 -49.707031 6.144531 -49.875 6.625 -49.875 L 16.59375 -49.875 C 17.125 -49.875 17.550781 -49.707031 17.875 -49.375 C 18.207031 -49.039062 18.375 -48.613281 18.375 -48.09375 L 18.375 -11.1875 L 39.75 -11.1875 C 40.28125 -11.1875 40.722656 -11.007812 41.078125 -10.65625 C 41.429688 -10.300781 41.609375 -9.859375 41.609375 -9.328125 L 41.609375 -1.78125 C 41.609375 -1.257812 41.429688 -0.832031 41.078125 -0.5 C 40.722656 -0.164062 40.28125 0 39.75 0 Z M 6.625 0 "></path>
      </g>
    </g>
  </g>
  <g fill="#ffcc00" fill-opacity="1">
    <g transform="translate(253.576315, 216.022835)">
      <g>
        <path d="M 1.859375 0 C 1.429688 0 1.0625 -0.148438 0.75 -0.453125 C 0.4375 -0.765625 0.28125 -1.113281 0.28125 -1.5 C 0.28125 -1.59375 0.328125 -1.828125 0.421875 -2.203125 C 2.753906 -8.859375 5.210938 -15.332031 7.796875 -21.625 C 10.390625 -27.914062 14.367188 -36.664062 19.734375 -47.875 C 19.921875 -48.445312 20.253906 -48.921875 20.734375 -49.296875 C 21.210938 -49.679688 21.804688 -49.875 22.515625 -49.875 L 64.125 -49.875 C 64.644531 -49.875 65.082031 -49.695312 65.4375 -49.34375 C 65.800781 -48.988281 65.984375 -48.546875 65.984375 -48.015625 L 65.984375 -40.96875 C 65.984375 -40.445312 65.800781 -40.019531 65.4375 -39.6875 C 65.082031 -39.351562 64.644531 -39.1875 64.125 -39.1875 L 43.03125 -39.1875 L 43.03125 -30.140625 L 62.5625 -30.140625 C 63.082031 -30.140625 63.519531 -29.957031 63.875 -29.59375 C 64.226562 -29.238281 64.40625 -28.800781 64.40625 -28.28125 L 64.40625 -21.796875 C 64.40625 -21.273438 64.226562 -20.835938 63.875 -20.484375 C 63.519531 -20.128906 63.082031 -19.953125 62.5625 -19.953125 L 43.03125 -19.953125 L 43.03125 -10.6875 L 64.6875 -10.6875 C 65.21875 -10.6875 65.660156 -10.507812 66.015625 -10.15625 C 66.367188 -9.800781 66.546875 -9.359375 66.546875 -8.828125 L 66.546875 -1.78125 C 66.546875 -1.257812 66.367188 -0.832031 66.015625 -0.5 C 65.660156 -0.164062 65.21875 0 64.6875 0 L 31.921875 0 C 31.441406 0 31.023438 -0.175781 30.671875 -0.53125 C 30.316406 -0.882812 30.140625 -1.300781 30.140625 -1.78125 L 30.140625 -8.484375 L 16.8125 -8.484375 C 15.101562 -5.203125 14.007812 -2.894531 13.53125 -1.5625 C 13.15625 -0.519531 12.375 0 11.1875 0 Z M 20.015625 -19.171875 L 30.140625 -19.171875 L 30.140625 -39.046875 L 28.578125 -39.046875 Z M 20.015625 -19.171875 "></path>
      </g>
    </g>
  </g>
  <g fill="#ffcc00" fill-opacity="1">
    <g transform="translate(323.177235, 216.022835)">
      <g>
        <path d="M 6.625 0 C 6.144531 0 5.726562 -0.175781 5.375 -0.53125 C 5.019531 -0.882812 4.84375 -1.300781 4.84375 -1.78125 L 4.84375 -48.015625 C 4.84375 -48.546875 5.007812 -48.988281 5.34375 -49.34375 C 5.675781 -49.695312 6.101562 -49.875 6.625 -49.875 L 26.21875 -49.875 C 32.488281 -49.875 37.390625 -48.445312 40.921875 -45.59375 C 44.460938 -42.75 46.234375 -38.738281 46.234375 -33.5625 C 46.234375 -30.238281 45.460938 -27.410156 43.921875 -25.078125 C 42.378906 -22.753906 40.253906 -20.953125 37.546875 -19.671875 L 47.171875 -2.28125 C 47.304688 -2 47.375 -1.738281 47.375 -1.5 C 47.375 -1.113281 47.234375 -0.765625 46.953125 -0.453125 C 46.671875 -0.148438 46.316406 0 45.890625 0 L 35.84375 0 C 34.457031 0 33.484375 -0.640625 32.921875 -1.921875 L 25.078125 -17.390625 L 18.234375 -17.390625 L 18.234375 -1.78125 C 18.234375 -1.257812 18.054688 -0.832031 17.703125 -0.5 C 17.347656 -0.164062 16.910156 0 16.390625 0 Z M 26.15625 -27.859375 C 28.195312 -27.859375 29.75 -28.367188 30.8125 -29.390625 C 31.882812 -30.410156 32.421875 -31.820312 32.421875 -33.625 C 32.421875 -35.4375 31.882812 -36.882812 30.8125 -37.96875 C 29.75 -39.0625 28.195312 -39.609375 26.15625 -39.609375 L 18.234375 -39.609375 L 18.234375 -27.859375 Z M 26.15625 -27.859375 "></path>
      </g>
    </g>
  </g>
</svg>
