<?xml version="1.0" encoding="UTF-8"?>
<svg xmlns="http://www.w3.org/2000/svg" xmlns:xlink="http://www.w3.org/1999/xlink" width="512" zoomAndPan="magnify" viewBox="0 0 384 383.999986" height="512" preserveAspectRatio="xMidYMid meet" version="1.0">
  <defs>
    <clipPath id="cdce739cdb">
      <path d="M 77.621094 134 L 190 134 L 190 320 L 77.621094 320 Z M 77.621094 134 " clip-rule="nonzero"></path>
    </clipPath>
    <clipPath id="51ebdf9578">
      <path d="M 194 134 L 306.371094 134 L 306.371094 319 L 194 319 Z M 194 134 " clip-rule="nonzero"></path>
    </clipPath>
  </defs>
  <g clip-path="url(#cdce739cdb)">
    <path fill="#ffcc00" d="M 107.753906 194.230469 C 102.175781 190.882812 97.339844 183.070312 97.339844 176.375 C 97.339844 169.683594 101.800781 167.078125 107.753906 170.425781 C 113.332031 173.773438 118.167969 181.582031 118.167969 188.277344 C 118.167969 194.972656 113.703125 197.578125 107.753906 194.230469 Z M 133.417969 162.242188 C 118.167969 153.6875 103.289062 144.761719 88.039062 136.207031 C 82.460938 132.859375 77.628906 135.464844 77.628906 142.160156 C 77.628906 159.640625 77.628906 177.121094 77.628906 194.601562 C 77.628906 212.082031 77.628906 229.5625 77.628906 247.042969 C 77.628906 253.738281 82.089844 261.546875 88.039062 264.894531 C 103.289062 273.449219 118.167969 282.375 133.417969 291.300781 C 148.664062 299.855469 163.542969 308.78125 178.792969 317.707031 C 184.371094 321.054688 189.203125 318.453125 189.203125 311.757812 C 189.203125 294.277344 189.203125 276.796875 189.203125 259.316406 C 189.203125 241.835938 189.203125 224.355469 189.203125 206.875 C 189.203125 200.179688 184.742188 192.371094 178.792969 189.023438 C 163.542969 180.097656 148.664062 171.542969 133.417969 162.613281 Z M 123.003906 250.019531 C 123.003906 243.324219 127.464844 240.71875 133.417969 244.066406 C 138.996094 247.414062 143.828125 255.226562 143.828125 261.917969 C 143.828125 268.613281 139.367188 271.21875 133.417969 267.871094 C 127.835938 264.523438 123.003906 256.710938 123.003906 250.019531 Z M 143.457031 202.785156 C 143.457031 209.476562 138.996094 212.082031 133.042969 208.734375 C 127.464844 205.386719 122.628906 197.578125 122.628906 190.882812 C 122.628906 184.1875 127.09375 181.582031 133.042969 184.929688 C 138.621094 188.277344 143.457031 196.089844 143.457031 202.785156 Z M 97.339844 235.140625 C 97.339844 228.445312 101.800781 225.84375 107.753906 229.191406 C 113.332031 232.539062 118.167969 240.347656 118.167969 247.042969 C 118.167969 253.738281 113.703125 256.339844 107.753906 252.992188 C 102.175781 249.644531 97.339844 241.835938 97.339844 235.140625 Z M 148.292969 264.523438 C 148.292969 257.828125 152.757812 255.226562 158.707031 258.574219 C 164.285156 261.917969 169.121094 269.730469 169.121094 276.425781 C 169.121094 283.121094 164.65625 285.722656 158.707031 282.375 C 153.128906 279.027344 148.292969 271.21875 148.292969 264.523438 Z M 158.707031 223.238281 C 153.128906 219.890625 148.292969 212.082031 148.292969 205.386719 C 148.292969 198.691406 152.757812 196.089844 158.707031 199.4375 C 164.285156 202.785156 169.121094 210.59375 169.121094 217.289062 C 169.121094 223.984375 164.65625 226.585938 158.707031 223.238281 Z M 158.707031 223.238281 " fill-opacity="1" fill-rule="evenodd"></path>
  </g>
  <path fill="#1cba99" d="M 136.390625 157.035156 C 151.640625 165.589844 166.515625 174.515625 181.765625 183.070312 C 187.34375 186.417969 196.644531 186.417969 202.222656 183.070312 C 217.472656 174.515625 232.347656 165.589844 247.597656 157.035156 C 262.847656 148.480469 277.722656 139.554688 292.972656 130.628906 C 298.550781 127.28125 298.550781 122.074219 292.972656 118.726562 C 277.722656 110.171875 262.847656 101.246094 247.597656 92.691406 C 232.347656 84.136719 217.472656 75.210938 202.222656 66.285156 C 196.644531 62.9375 187.34375 62.9375 181.765625 66.285156 C 166.515625 75.210938 151.640625 83.765625 136.390625 92.691406 C 121.140625 101.246094 106.265625 110.171875 91.015625 119.101562 C 85.4375 122.445312 85.4375 127.652344 91.015625 131 C 106.265625 139.925781 121.140625 148.480469 136.390625 157.40625 Z M 233.09375 130.628906 C 227.511719 127.28125 227.511719 122.074219 233.09375 118.726562 C 238.671875 115.378906 247.96875 115.378906 253.546875 118.726562 C 259.128906 122.074219 259.128906 127.28125 253.546875 130.628906 C 247.96875 133.976562 238.671875 133.976562 233.09375 130.628906 Z M 151.269531 118.726562 C 156.847656 122.074219 156.847656 127.28125 151.269531 130.628906 C 145.691406 133.976562 136.390625 133.976562 130.8125 130.628906 C 125.234375 127.28125 125.234375 122.074219 130.8125 118.726562 C 136.390625 115.378906 145.691406 115.378906 151.269531 118.726562 Z M 181.765625 130.628906 C 176.1875 127.28125 176.1875 122.074219 181.765625 118.726562 C 187.34375 115.378906 196.644531 115.378906 202.222656 118.726562 C 207.800781 122.074219 207.800781 127.28125 202.222656 130.628906 C 196.644531 133.976562 187.34375 133.976562 181.765625 130.628906 Z M 181.765625 130.628906 " fill-opacity="1" fill-rule="evenodd"></path>
  <g clip-path="url(#51ebdf9578)">
    <path fill="#00a0e9" d="M 250.574219 162.242188 C 235.324219 170.796875 220.445312 179.722656 205.199219 188.277344 C 199.617188 191.625 194.785156 199.4375 194.785156 206.128906 C 194.785156 223.609375 194.785156 241.089844 194.785156 258.574219 C 194.785156 276.054688 194.785156 293.535156 194.785156 311.015625 C 194.785156 317.707031 199.246094 320.3125 205.199219 316.964844 C 220.445312 308.410156 235.324219 299.484375 250.574219 290.558594 C 265.820312 282.003906 280.699219 273.078125 295.949219 264.152344 C 301.527344 260.804688 306.363281 252.992188 306.363281 246.296875 C 306.363281 228.816406 306.363281 211.335938 306.363281 193.855469 C 306.363281 176.375 306.363281 158.894531 306.363281 141.414062 C 306.363281 134.71875 301.898438 132.117188 295.949219 135.464844 C 280.699219 144.390625 265.820312 152.945312 250.574219 161.871094 Z M 276.234375 170.425781 C 281.816406 167.078125 286.648438 169.683594 286.648438 176.375 C 286.648438 183.070312 282.1875 190.882812 276.234375 194.230469 C 270.65625 197.578125 265.820312 194.972656 265.820312 188.277344 C 265.820312 181.582031 270.285156 173.773438 276.234375 170.425781 Z M 250.574219 214.683594 C 256.152344 211.335938 260.988281 213.941406 260.988281 220.636719 C 260.988281 227.332031 256.523438 235.140625 250.574219 238.488281 C 244.992188 241.835938 240.160156 239.230469 240.160156 232.539062 C 240.160156 225.84375 244.621094 218.03125 250.574219 214.683594 Z M 224.910156 199.808594 C 230.488281 196.460938 235.324219 199.0625 235.324219 205.757812 C 235.324219 212.453125 230.859375 220.265625 224.910156 223.609375 C 219.332031 226.957031 214.496094 224.355469 214.496094 217.660156 C 214.496094 210.964844 218.960938 203.15625 224.910156 199.808594 Z M 275.863281 229.191406 C 281.441406 225.84375 286.277344 228.445312 286.277344 235.140625 C 286.277344 241.835938 281.816406 249.644531 275.863281 252.992188 C 270.285156 256.339844 265.449219 253.738281 265.449219 247.042969 C 265.449219 240.347656 269.914062 232.539062 275.863281 229.191406 Z M 234.953125 264.523438 C 234.953125 271.21875 230.488281 279.027344 224.539062 282.375 C 218.960938 285.722656 214.125 283.121094 214.125 276.425781 C 214.125 269.730469 218.585938 261.917969 224.539062 258.574219 C 230.117188 255.226562 234.953125 257.828125 234.953125 264.523438 Z M 234.953125 264.523438 " fill-opacity="1" fill-rule="evenodd"></path>
  </g>
</svg>
