<?xml version="1.0" encoding="UTF-8"?>
<svg xmlns="http://www.w3.org/2000/svg" xmlns:xlink="http://www.w3.org/1999/xlink" width="512" zoomAndPan="magnify" viewBox="0 0 384 383.999986" height="512" preserveAspectRatio="xMidYMid meet" version="1.0">
  <defs>
    <g></g>
    <clipPath id="14ef22bca3">
      <path d="M 192 0 L 220.34375 41.367188 L 261.65625 13.078125 L 273.207031 61.933594 L 321.902344 50.539062 L 315.101562 100.289062 L 364.605469 107.332031 L 340.371094 151.253906 L 384 175.78125 L 345.601562 207.941406 L 377.460938 246.644531 L 330.085938 262.703125 L 345.875 310.347656 L 295.921875 308.136719 L 293.507812 358.292969 L 247.722656 338.105469 L 227.429688 384 L 192 348.566406 L 156.570312 384 L 136.277344 338.105469 L 90.492188 358.292969 L 88.078125 308.136719 L 38.125 310.347656 L 53.914062 262.703125 L 6.539062 246.644531 L 38.398438 207.941406 L 0 175.78125 L 43.628906 151.253906 L 19.390625 107.332031 L 68.898438 100.289062 L 62.097656 50.539062 L 110.792969 61.933594 L 122.34375 13.078125 L 163.65625 41.367188 Z M 192 0 " clip-rule="nonzero"></path>
    </clipPath>
  </defs>
  <g clip-path="url(#14ef22bca3)">
    <rect x="-38.4" width="460.8" fill="#ffcc00" y="-38.399999" height="460.799983" fill-opacity="1"></rect>
  </g>
  <g fill="#e34234" fill-opacity="1">
    <g transform="translate(98.546944, 182.788581)">
      <g>
        <path d="M 22.84375 0 C 22.164062 0 21.597656 -0.210938 21.140625 -0.640625 C 20.679688 -1.078125 20.453125 -1.628906 20.453125 -2.296875 L 20.453125 -49.46875 L 4.234375 -49.46875 C 3.554688 -49.46875 2.988281 -49.679688 2.53125 -50.109375 C 2.070312 -50.535156 1.84375 -51.085938 1.84375 -51.765625 L 1.84375 -62.078125 C 1.84375 -62.753906 2.070312 -63.320312 2.53125 -63.78125 C 2.988281 -64.25 3.554688 -64.484375 4.234375 -64.484375 L 54.25 -64.484375 C 54.925781 -64.484375 55.492188 -64.25 55.953125 -63.78125 C 56.410156 -63.320312 56.640625 -62.753906 56.640625 -62.078125 L 56.640625 -51.765625 C 56.640625 -51.085938 56.410156 -50.535156 55.953125 -50.109375 C 55.492188 -49.679688 54.925781 -49.46875 54.25 -49.46875 L 38.046875 -49.46875 L 38.046875 -2.296875 C 38.046875 -1.628906 37.8125 -1.078125 37.34375 -0.640625 C 36.882812 -0.210938 36.316406 0 35.640625 0 Z M 22.84375 0 "></path>
      </g>
    </g>
  </g>
  <g fill="#e34234" fill-opacity="1">
    <g transform="translate(157.039249, 182.788581)">
      <g>
        <path d="M 32.96875 0.921875 C 24.25 0.921875 17.375 -1.195312 12.34375 -5.4375 C 7.3125 -9.675781 4.640625 -15.90625 4.328125 -24.125 C 4.265625 -25.851562 4.234375 -28.492188 4.234375 -32.046875 C 4.234375 -35.609375 4.265625 -38.28125 4.328125 -40.0625 C 4.578125 -48.164062 7.265625 -54.410156 12.390625 -58.796875 C 17.515625 -63.191406 24.375 -65.390625 32.96875 -65.390625 C 41.507812 -65.390625 48.34375 -63.191406 53.46875 -58.796875 C 58.59375 -54.410156 61.28125 -48.164062 61.53125 -40.0625 C 61.65625 -36.5 61.71875 -33.828125 61.71875 -32.046875 C 61.71875 -30.210938 61.65625 -27.570312 61.53125 -24.125 C 61.21875 -15.90625 58.5625 -9.675781 53.5625 -5.4375 C 48.5625 -1.195312 41.695312 0.921875 32.96875 0.921875 Z M 32.96875 -12.890625 C 36.164062 -12.890625 38.710938 -13.859375 40.609375 -15.796875 C 42.515625 -17.734375 43.53125 -20.695312 43.65625 -24.6875 C 43.78125 -28.25 43.84375 -30.796875 43.84375 -32.328125 C 43.84375 -33.867188 43.78125 -36.359375 43.65625 -39.796875 C 43.53125 -43.785156 42.515625 -46.742188 40.609375 -48.671875 C 38.710938 -50.609375 36.164062 -51.578125 32.96875 -51.578125 C 29.71875 -51.578125 27.140625 -50.609375 25.234375 -48.671875 C 23.328125 -46.742188 22.316406 -43.785156 22.203125 -39.796875 C 22.140625 -38.078125 22.109375 -35.585938 22.109375 -32.328125 C 22.109375 -29.015625 22.140625 -26.46875 22.203125 -24.6875 C 22.316406 -20.695312 23.328125 -17.734375 25.234375 -15.796875 C 27.140625 -13.859375 29.71875 -12.890625 32.96875 -12.890625 Z M 32.96875 -12.890625 "></path>
      </g>
    </g>
  </g>
  <g fill="#e34234" fill-opacity="1">
    <g transform="translate(222.900663, 182.788581)">
      <g>
        <path d="M 8.5625 0 C 7.945312 0 7.410156 -0.226562 6.953125 -0.6875 C 6.492188 -1.144531 6.265625 -1.679688 6.265625 -2.296875 L 6.265625 -62.078125 C 6.265625 -62.753906 6.476562 -63.320312 6.90625 -63.78125 C 7.332031 -64.25 7.882812 -64.484375 8.5625 -64.484375 L 34.640625 -64.484375 C 42.617188 -64.484375 48.878906 -62.671875 53.421875 -59.046875 C 57.960938 -55.421875 60.234375 -50.109375 60.234375 -43.109375 C 60.234375 -36.109375 57.960938 -30.875 53.421875 -27.40625 C 48.878906 -23.9375 42.617188 -22.203125 34.640625 -22.203125 L 24.125 -22.203125 L 24.125 -2.296875 C 24.125 -1.679688 23.910156 -1.144531 23.484375 -0.6875 C 23.054688 -0.226562 22.503906 0 21.828125 0 Z M 34.171875 -35.375 C 36.691406 -35.375 38.671875 -36.03125 40.109375 -37.34375 C 41.554688 -38.664062 42.28125 -40.617188 42.28125 -43.203125 C 42.28125 -45.597656 41.617188 -47.53125 40.296875 -49 C 38.972656 -50.476562 36.929688 -51.21875 34.171875 -51.21875 L 23.859375 -51.21875 L 23.859375 -35.375 Z M 34.171875 -35.375 "></path>
      </g>
    </g>
  </g>
  <g fill="#e34234" fill-opacity="1">
    <g transform="translate(65.791315, 264.155914)">
      <g>
        <path d="M 24.6875 0 C 23.644531 0 22.800781 -0.257812 22.15625 -0.78125 C 21.507812 -1.300781 21.0625 -1.960938 20.8125 -2.765625 L 2.203125 -61.71875 L 2.03125 -62.546875 C 2.03125 -63.035156 2.226562 -63.476562 2.625 -63.875 C 3.019531 -64.28125 3.492188 -64.484375 4.046875 -64.484375 L 16.125 -64.484375 C 17.039062 -64.484375 17.789062 -64.21875 18.375 -63.6875 C 18.957031 -63.164062 19.34375 -62.597656 19.53125 -61.984375 L 32.046875 -20.359375 L 44.671875 -61.984375 C 44.859375 -62.660156 45.242188 -63.242188 45.828125 -63.734375 C 46.410156 -64.234375 47.160156 -64.484375 48.078125 -64.484375 L 60.140625 -64.484375 C 60.691406 -64.484375 61.148438 -64.28125 61.515625 -63.875 C 61.890625 -63.476562 62.078125 -63.035156 62.078125 -62.546875 C 62.078125 -62.234375 62.046875 -61.957031 61.984375 -61.71875 L 43.296875 -2.765625 C 43.109375 -1.960938 42.691406 -1.300781 42.046875 -0.78125 C 41.398438 -0.257812 40.554688 0 39.515625 0 Z M 24.6875 0 "></path>
      </g>
    </g>
  </g>
  <g fill="#e34234" fill-opacity="1">
    <g transform="translate(129.994687, 264.155914)">
      <g>
        <path d="M 2.671875 0 C 2.179688 0 1.734375 -0.195312 1.328125 -0.59375 C 0.929688 -1 0.734375 -1.445312 0.734375 -1.9375 C 0.734375 -2.300781 0.765625 -2.578125 0.828125 -2.765625 L 22.296875 -61.8125 C 22.910156 -63.59375 24.132812 -64.484375 25.96875 -64.484375 L 40.34375 -64.484375 C 42.1875 -64.484375 43.414062 -63.59375 44.03125 -61.8125 L 65.484375 -2.765625 C 65.546875 -2.578125 65.578125 -2.300781 65.578125 -1.9375 C 65.578125 -1.445312 65.378906 -1 64.984375 -0.59375 C 64.585938 -0.195312 64.140625 0 63.640625 0 L 51.671875 0 C 50.203125 0 49.160156 -0.675781 48.546875 -2.03125 L 45.21875 -10.96875 L 21.09375 -10.96875 L 17.78125 -2.03125 C 17.164062 -0.675781 16.117188 0 14.640625 0 Z M 24.96875 -24.78125 L 41.359375 -24.78125 L 33.15625 -48.265625 Z M 24.96875 -24.78125 "></path>
      </g>
    </g>
  </g>
  <g fill="#e34234" fill-opacity="1">
    <g transform="translate(196.316676, 264.155914)">
      <g>
        <path d="M 8.5625 0 C 7.945312 0 7.410156 -0.226562 6.953125 -0.6875 C 6.492188 -1.144531 6.265625 -1.679688 6.265625 -2.296875 L 6.265625 -62.171875 C 6.265625 -62.847656 6.492188 -63.398438 6.953125 -63.828125 C 7.410156 -64.265625 7.945312 -64.484375 8.5625 -64.484375 L 21.46875 -64.484375 C 22.132812 -64.484375 22.679688 -64.265625 23.109375 -63.828125 C 23.546875 -63.398438 23.765625 -62.847656 23.765625 -62.171875 L 23.765625 -14.46875 L 51.390625 -14.46875 C 52.066406 -14.46875 52.632812 -14.234375 53.09375 -13.765625 C 53.5625 -13.304688 53.796875 -12.738281 53.796875 -12.0625 L 53.796875 -2.296875 C 53.796875 -1.628906 53.5625 -1.078125 53.09375 -0.640625 C 52.632812 -0.210938 52.066406 0 51.390625 0 Z M 8.5625 0 "></path>
      </g>
    </g>
  </g>
  <g fill="#e34234" fill-opacity="1">
    <g transform="translate(251.585007, 264.155914)">
      <g>
        <path d="M 33.25 0.921875 C 24.34375 0.921875 17.375 -1.238281 12.34375 -5.5625 C 7.3125 -9.894531 4.640625 -16.082031 4.328125 -24.125 C 4.265625 -25.851562 4.234375 -28.648438 4.234375 -32.515625 C 4.234375 -36.378906 4.265625 -39.203125 4.328125 -40.984375 C 4.578125 -48.722656 7.265625 -54.722656 12.390625 -58.984375 C 17.515625 -63.253906 24.46875 -65.390625 33.25 -65.390625 C 39.144531 -65.390625 44.285156 -64.4375 48.671875 -62.53125 C 53.066406 -60.632812 56.414062 -58.195312 58.71875 -55.21875 C 61.019531 -52.238281 62.234375 -49.1875 62.359375 -46.0625 C 62.359375 -45.5 62.15625 -45.019531 61.75 -44.625 C 61.351562 -44.226562 60.878906 -44.03125 60.328125 -44.03125 L 46.0625 -44.03125 C 45.445312 -44.03125 44.96875 -44.132812 44.625 -44.34375 C 44.289062 -44.5625 43.96875 -44.882812 43.65625 -45.3125 C 42.914062 -47.03125 41.734375 -48.503906 40.109375 -49.734375 C 38.484375 -50.960938 36.195312 -51.578125 33.25 -51.578125 C 26.125 -51.578125 22.441406 -47.894531 22.203125 -40.53125 C 22.140625 -38.8125 22.109375 -36.171875 22.109375 -32.609375 C 22.109375 -29.046875 22.140625 -26.375 22.203125 -24.59375 C 22.441406 -16.789062 26.1875 -12.890625 33.4375 -12.890625 C 37 -12.890625 39.820312 -13.78125 41.90625 -15.5625 C 44 -17.34375 45.046875 -20.046875 45.046875 -23.671875 L 45.046875 -25.328125 L 36.84375 -25.328125 C 36.164062 -25.328125 35.597656 -25.554688 35.140625 -26.015625 C 34.679688 -26.484375 34.453125 -27.050781 34.453125 -27.71875 L 34.453125 -34.90625 C 34.453125 -35.582031 34.679688 -36.148438 35.140625 -36.609375 C 35.597656 -37.066406 36.164062 -37.296875 36.84375 -37.296875 L 60.234375 -37.296875 C 60.910156 -37.296875 61.476562 -37.066406 61.9375 -36.609375 C 62.40625 -36.148438 62.640625 -35.582031 62.640625 -34.90625 L 62.640625 -24.21875 C 62.640625 -19 61.425781 -14.5 59 -10.71875 C 56.570312 -6.945312 53.144531 -4.0625 48.71875 -2.0625 C 44.300781 -0.0703125 39.144531 0.921875 33.25 0.921875 Z M 33.25 0.921875 "></path>
      </g>
    </g>
  </g>
</svg>
