<?xml version="1.0" encoding="UTF-8"?>
<svg xmlns="http://www.w3.org/2000/svg" xmlns:xlink="http://www.w3.org/1999/xlink" width="190" zoomAndPan="magnify" viewBox="0 0 142.5 30.000001" height="40" preserveAspectRatio="xMidYMid meet" version="1.0">
  <defs>
    <clipPath id="595363ee31">
      <path d="M 2.140625 2 L 28.269531 2 L 28.269531 27.367188 L 2.140625 27.367188 Z M 2.140625 2 " clip-rule="nonzero"></path>
    </clipPath>
    <clipPath id="3082c6d959">
      <path d="M 2.140625 1.964844 L 28.269531 1.964844 L 28.269531 27 L 2.140625 27 Z M 2.140625 1.964844 " clip-rule="nonzero"></path>
    </clipPath>
    <clipPath id="d250e051b7">
      <path d="M 30.160156 2 L 56.289062 2 L 56.289062 27.367188 L 30.160156 27.367188 Z M 30.160156 2 " clip-rule="nonzero"></path>
    </clipPath>
    <clipPath id="2c962b56ae">
      <path d="M 30.160156 1.964844 L 56.289062 1.964844 L 56.289062 27 L 30.160156 27 Z M 30.160156 1.964844 " clip-rule="nonzero"></path>
    </clipPath>
    <clipPath id="bd6ef56124">
      <path d="M 58 2 L 84.078125 2 L 84.078125 27.367188 L 58 27.367188 Z M 58 2 " clip-rule="nonzero"></path>
    </clipPath>
    <clipPath id="9e5a7842ce">
      <path d="M 57.949219 1.964844 L 84.078125 1.964844 L 84.078125 27 L 57.949219 27 Z M 57.949219 1.964844 " clip-rule="nonzero"></path>
    </clipPath>
    <clipPath id="69c4b7ae07">
      <path d="M 85.734375 2 L 111.863281 2 L 111.863281 27.367188 L 85.734375 27.367188 Z M 85.734375 2 " clip-rule="nonzero"></path>
    </clipPath>
    <clipPath id="0d20991443">
      <path d="M 85.734375 1.964844 L 111.863281 1.964844 L 111.863281 27 L 85.734375 27 Z M 85.734375 1.964844 " clip-rule="nonzero"></path>
    </clipPath>
    <clipPath id="c2a9afc8df">
      <path d="M 113.523438 2 L 139.652344 2 L 139.652344 27.367188 L 113.523438 27.367188 Z M 113.523438 2 " clip-rule="nonzero"></path>
    </clipPath>
    <clipPath id="d1fcd8dee7">
      <path d="M 113.523438 1.964844 L 139.652344 1.964844 L 139.652344 27 L 113.523438 27 Z M 113.523438 1.964844 " clip-rule="nonzero"></path>
    </clipPath>
  </defs>
  <g clip-path="url(#595363ee31)">
    <path fill="#ffcc00" d="M 15.347656 2.054688 L 19.40625 10.28125 L 28.484375 11.601562 L 21.914062 18.011719 L 23.472656 27.054688 L 15.347656 22.785156 L 7.21875 27.054688 L 8.769531 18.011719 L 2.203125 11.601562 L 11.285156 10.28125 Z M 15.347656 2.054688 " fill-opacity="1" fill-rule="nonzero"></path>
  </g>
  <g clip-path="url(#3082c6d959)">
    <path fill="#ffcc00" d="M 15.285156 1.976562 L 19.347656 10.203125 L 28.429688 11.523438 L 21.855469 17.929688 L 23.40625 26.972656 L 15.285156 22.707031 L 7.164062 26.972656 L 8.714844 17.929688 L 2.140625 11.523438 L 11.222656 10.203125 Z M 15.285156 1.976562 " fill-opacity="1" fill-rule="nonzero"></path>
    <path fill="#ffcc00" d="M 15.285156 1.976562 L 19.347656 10.203125 L 28.429688 11.523438 L 21.855469 17.929688 L 23.40625 26.972656 L 15.285156 22.707031 L 7.164062 26.972656 L 8.714844 17.929688 L 2.140625 11.523438 L 11.222656 10.203125 Z M 15.285156 1.976562 " fill-opacity="1" fill-rule="nonzero"></path>
    <path fill="#ffcc00" d="M 15.285156 1.976562 L 19.347656 10.203125 L 28.429688 11.523438 L 21.855469 17.929688 L 23.40625 26.972656 L 15.285156 22.707031 L 7.164062 26.972656 L 8.714844 17.929688 L 2.140625 11.523438 L 11.222656 10.203125 Z M 15.285156 1.976562 " fill-opacity="1" fill-rule="nonzero"></path>
  </g>
  <g clip-path="url(#d250e051b7)">
    <path fill="#ffcc00" d="M 43.367188 2.054688 L 47.425781 10.28125 L 56.503906 11.601562 L 49.933594 18.011719 L 51.488281 27.054688 L 43.367188 22.785156 L 35.238281 27.054688 L 36.789062 18.011719 L 30.222656 11.601562 L 39.304688 10.28125 Z M 43.367188 2.054688 " fill-opacity="1" fill-rule="nonzero"></path>
  </g>
  <g clip-path="url(#2c962b56ae)">
    <path fill="#ffcc00" d="M 43.304688 1.976562 L 47.367188 10.203125 L 56.445312 11.523438 L 49.875 17.929688 L 51.425781 26.972656 L 43.304688 22.707031 L 35.179688 26.972656 L 36.730469 17.929688 L 30.160156 11.523438 L 39.238281 10.203125 Z M 43.304688 1.976562 " fill-opacity="1" fill-rule="nonzero"></path>
    <path fill="#ffcc00" d="M 43.304688 1.976562 L 47.367188 10.203125 L 56.445312 11.523438 L 49.875 17.929688 L 51.425781 26.972656 L 43.304688 22.707031 L 35.179688 26.972656 L 36.730469 17.929688 L 30.160156 11.523438 L 39.238281 10.203125 Z M 43.304688 1.976562 " fill-opacity="1" fill-rule="nonzero"></path>
    <path fill="#ffcc00" d="M 43.304688 1.976562 L 47.367188 10.203125 L 56.445312 11.523438 L 49.875 17.929688 L 51.425781 26.972656 L 43.304688 22.707031 L 35.179688 26.972656 L 36.730469 17.929688 L 30.160156 11.523438 L 39.238281 10.203125 Z M 43.304688 1.976562 " fill-opacity="1" fill-rule="nonzero"></path>
  </g>
  <g clip-path="url(#bd6ef56124)">
    <path fill="#ffcc00" d="M 71.152344 2.054688 L 75.210938 10.28125 L 84.292969 11.601562 L 77.71875 18.011719 L 79.277344 27.054688 L 71.152344 22.785156 L 63.027344 27.054688 L 64.578125 18.011719 L 58.011719 11.601562 L 67.089844 10.28125 Z M 71.152344 2.054688 " fill-opacity="1" fill-rule="nonzero"></path>
  </g>
  <g clip-path="url(#9e5a7842ce)">
    <path fill="#ffcc00" d="M 71.089844 1.976562 L 75.15625 10.203125 L 84.234375 11.523438 L 77.664062 17.929688 L 79.214844 26.972656 L 71.089844 22.707031 L 62.96875 26.972656 L 64.519531 17.929688 L 57.949219 11.523438 L 67.027344 10.203125 Z M 71.089844 1.976562 " fill-opacity="1" fill-rule="nonzero"></path>
    <path fill="#ffcc00" d="M 71.089844 1.976562 L 75.15625 10.203125 L 84.234375 11.523438 L 77.664062 17.929688 L 79.214844 26.972656 L 71.089844 22.707031 L 62.96875 26.972656 L 64.519531 17.929688 L 57.949219 11.523438 L 67.027344 10.203125 Z M 71.089844 1.976562 " fill-opacity="1" fill-rule="nonzero"></path>
    <path fill="#ffcc00" d="M 71.089844 1.976562 L 75.15625 10.203125 L 84.234375 11.523438 L 77.664062 17.929688 L 79.214844 26.972656 L 71.089844 22.707031 L 62.96875 26.972656 L 64.519531 17.929688 L 57.949219 11.523438 L 67.027344 10.203125 Z M 71.089844 1.976562 " fill-opacity="1" fill-rule="nonzero"></path>
  </g>
  <g clip-path="url(#69c4b7ae07)">
    <path fill="#ffcc00" d="M 98.941406 2.054688 L 103 10.28125 L 112.078125 11.601562 L 105.507812 18.011719 L 107.0625 27.054688 L 98.941406 22.785156 L 90.8125 27.054688 L 92.363281 18.011719 L 85.796875 11.601562 L 94.878906 10.28125 Z M 98.941406 2.054688 " fill-opacity="1" fill-rule="nonzero"></path>
  </g>
  <g clip-path="url(#0d20991443)">
    <path fill="#ffcc00" d="M 98.878906 1.976562 L 102.941406 10.203125 L 112.023438 11.523438 L 105.449219 17.929688 L 107 26.972656 L 98.878906 22.707031 L 90.753906 26.972656 L 92.304688 17.929688 L 85.734375 11.523438 L 94.8125 10.203125 Z M 98.878906 1.976562 " fill-opacity="1" fill-rule="nonzero"></path>
    <path fill="#ffcc00" d="M 98.878906 1.976562 L 102.941406 10.203125 L 112.023438 11.523438 L 105.449219 17.929688 L 107 26.972656 L 98.878906 22.707031 L 90.753906 26.972656 L 92.304688 17.929688 L 85.734375 11.523438 L 94.8125 10.203125 Z M 98.878906 1.976562 " fill-opacity="1" fill-rule="nonzero"></path>
    <path fill="#ffcc00" d="M 98.878906 1.976562 L 102.941406 10.203125 L 112.023438 11.523438 L 105.449219 17.929688 L 107 26.972656 L 98.878906 22.707031 L 90.753906 26.972656 L 92.304688 17.929688 L 85.734375 11.523438 L 94.8125 10.203125 Z M 98.878906 1.976562 " fill-opacity="1" fill-rule="nonzero"></path>
  </g>
  <g clip-path="url(#c2a9afc8df)">
    <path fill="#ffcc00" d="M 126.726562 2.054688 L 130.785156 10.28125 L 139.867188 11.601562 L 133.292969 18.011719 L 134.851562 27.054688 L 126.726562 22.785156 L 118.601562 27.054688 L 120.152344 18.011719 L 113.585938 11.601562 L 122.664062 10.28125 Z M 126.726562 2.054688 " fill-opacity="1" fill-rule="nonzero"></path>
  </g>
  <g clip-path="url(#d1fcd8dee7)">
    <path fill="#ffcc00" d="M 126.664062 1.976562 L 130.730469 10.203125 L 139.808594 11.523438 L 133.238281 17.929688 L 134.789062 26.972656 L 126.664062 22.707031 L 118.542969 26.972656 L 120.09375 17.929688 L 113.523438 11.523438 L 122.601562 10.203125 Z M 126.664062 1.976562 " fill-opacity="1" fill-rule="nonzero"></path>
    <path fill="#ffcc00" d="M 126.664062 1.976562 L 130.730469 10.203125 L 139.808594 11.523438 L 133.238281 17.929688 L 134.789062 26.972656 L 126.664062 22.707031 L 118.542969 26.972656 L 120.09375 17.929688 L 113.523438 11.523438 L 122.601562 10.203125 Z M 126.664062 1.976562 " fill-opacity="1" fill-rule="nonzero"></path>
    <path fill="#ffcc00" d="M 126.664062 1.976562 L 130.730469 10.203125 L 139.808594 11.523438 L 133.238281 17.929688 L 134.789062 26.972656 L 126.664062 22.707031 L 118.542969 26.972656 L 120.09375 17.929688 L 113.523438 11.523438 L 122.601562 10.203125 Z M 126.664062 1.976562 " fill-opacity="1" fill-rule="nonzero"></path>
  </g>
</svg>
